<?xml version="1.0" standalone="no"?>
<!DOCTYPE svg PUBLIC "-//W3C//DTD SVG 20010904//EN"
 "http://www.w3.org/TR/2001/REC-SVG-20010904/DTD/svg10.dtd">
<svg version="1.0" xmlns="http://www.w3.org/2000/svg"
 width="640.000000pt" height="640.000000pt" viewBox="0 0 640.000000 640.000000"
 preserveAspectRatio="xMidYMid meet">
<metadata>
Created by potrace 1.14, written by Peter Selinger 2001-2017
</metadata>
<g transform="translate(0.000000,640.000000) scale(0.100000,-0.100000)"
fill="#000000" stroke="none">
<path d="M0 4609 c0 -1702 1 -1791 18 -1784 46 18 155 35 230 35 133 0 217 17
253 50 53 48 55 48 659 31 190 -5 363 -6 385 -2 54 9 256 -4 283 -18 33 -18
101 -16 152 4 27 10 70 17 107 16 69 -1 113 11 113 33 0 20 46 26 70 9 17 -12
20 -12 20 1 0 8 -4 17 -9 21 -6 3 -9 28 -9 55 1 27 -4 56 -12 65 -9 11 -10 19
-3 26 7 7 4 22 -8 47 -11 20 -19 46 -19 57 0 12 -5 26 -11 32 -6 6 -11 32 -11
57 -1 41 -4 46 -23 46 -15 0 -25 8 -29 23 -3 12 -2 23 3 25 4 1 7 15 5 30 -3
23 -1 22 14 -10 17 -38 32 -49 32 -25 0 6 -7 47 -15 90 -9 45 -15 135 -15 209
l0 130 23 -6 c24 -8 51 -13 80 -15 11 -1 17 -9 17 -25 0 -13 11 -31 25 -42 14
-11 32 -40 41 -69 40 -129 120 -239 182 -251 39 -8 40 -10 44 -57 2 -33 5 -37
29 -37 15 0 32 -7 39 -15 7 -8 23 -15 37 -15 18 0 23 -5 21 -17 -2 -10 -10
-17 -16 -16 -7 2 -12 -3 -12 -10 0 -8 -11 -24 -24 -36 -13 -12 -29 -43 -35
-67 -9 -33 -16 -44 -31 -44 -22 0 -27 -16 -8 -22 8 -3 4 -12 -10 -26 -22 -22
-29 -42 -14 -42 6 0 7 -106 1 -157 -3 -22 -19 -33 -19 -13 0 6 -12 9 -27 9
-22 -1 -24 -3 -7 -6 15 -3 20 -10 17 -23 -3 -10 1 -28 8 -41 12 -23 12 -23 19
-4 5 14 8 8 8 -20 0 -33 -2 -36 -9 -17 -10 27 -29 29 -29 4 0 -16 -25 -77 -37
-92 -2 -2 -8 2 -13 10 -8 13 -10 12 -10 -2 0 -10 -4 -18 -10 -18 -5 0 -10 10
-10 22 0 12 -12 33 -26 45 -21 17 -24 26 -16 36 7 8 8 17 3 23 -5 5 -12 18
-15 29 -3 11 -3 2 -1 -20 3 -27 1 -35 -5 -25 -5 8 -11 12 -14 9 -7 -6 34 -91
48 -101 6 -4 12 -36 13 -70 2 -101 11 -133 43 -151 15 -9 33 -30 40 -47 7 -16
18 -30 26 -30 7 0 17 -15 22 -33 8 -28 71 -107 72 -89 0 4 6 -2 12 -13 27 -45
8 -83 -34 -69 -13 4 -24 6 -26 5 -8 -5 -42 44 -42 60 0 10 -4 21 -10 24 -20
13 -9 -42 19 -90 36 -62 72 -101 186 -201 50 -43 91 -82 93 -86 4 -8 119 -98
204 -159 71 -52 120 -102 170 -175 30 -45 48 -62 59 -58 18 5 32 -18 20 -32
-4 -5 1 -25 11 -44 l18 -35 -6 35 -6 35 25 -24 26 -23 -6 22 c-6 21 -3 22 20
16 19 -4 40 1 69 16 23 13 62 34 87 48 36 20 45 30 43 48 -1 18 2 23 15 20 11
-2 18 -13 19 -28 3 -67 2 -67 34 -30 17 19 38 51 46 70 9 19 24 44 34 55 10
11 41 57 69 103 28 46 72 111 98 144 113 144 110 136 118 308 3 77 2 93 -5 60
-15 -79 -40 -136 -107 -241 -12 -18 -27 -39 -32 -46 -6 -7 -11 -19 -11 -27 0
-8 -25 -24 -60 -38 -33 -12 -60 -26 -60 -30 0 -5 -4 -8 -10 -8 -5 0 -10 7 -10
15 0 8 -7 15 -15 15 -20 0 -19 5 5 38 20 27 51 121 51 155 0 9 4 15 9 12 9 -5
80 86 80 103 0 5 7 12 15 16 8 3 15 17 15 30 0 19 4 24 16 19 10 -4 14 -1 12
9 -5 24 24 87 44 94 11 3 18 15 18 29 0 13 4 26 10 30 5 3 7 11 4 18 -2 7 2
21 10 32 14 20 15 19 25 -5 5 -14 21 -38 36 -55 25 -29 26 -29 19 -5 -15 50 0
126 27 141 34 18 46 4 54 -58 7 -62 31 -123 47 -123 6 0 7 -16 3 -40 -7 -39
-6 -40 22 -40 20 0 24 -3 14 -9 -16 -10 -6 -31 14 -31 8 0 29 -14 47 -30 19
-17 42 -29 53 -28 19 3 20 11 22 133 4 280 12 471 22 503 12 41 64 120 90 139
15 10 83 14 288 18 147 2 470 10 717 16 427 12 451 11 503 -6 52 -18 56 -18
131 0 84 21 193 25 214 8 7 -6 25 -13 41 -17 l27 -6 0 475 0 475 -24 -6 c-33
-8 -84 21 -92 52 -4 14 -3 54 2 87 4 34 8 106 9 161 1 84 4 101 20 112 23 17
57 18 73 2 9 -9 12 118 12 575 l0 587 -27 12 c-28 11 -103 28 -136 31 -10 1
-22 9 -28 17 -8 13 -11 12 -25 -5 -8 -11 -17 -30 -21 -42 -3 -14 -13 -23 -24
-23 -10 0 -30 -5 -44 -12 -21 -9 -31 -9 -46 0 -10 7 -26 12 -34 12 -8 0 -15 7
-15 15 0 8 -6 15 -14 15 -18 0 -26 22 -26 70 0 21 -7 45 -15 54 -14 13 -13 16
4 26 26 13 53 13 88 -2 38 -15 37 -15 83 -17 27 -1 40 -6 40 -15 0 -16 27 -29
41 -20 5 3 9 10 9 15 0 6 7 17 15 25 8 9 15 29 15 45 0 25 4 29 28 29 15 0 33
5 40 12 9 9 12 9 12 0 0 -7 16 -12 40 -12 29 0 40 4 40 15 0 11 -11 15 -39 15
-22 0 -43 5 -46 10 -10 17 -35 11 -60 -15 -26 -25 -35 -28 -72 -26 -17 1 -23
7 -23 24 -1 25 -22 57 -39 57 -12 0 -15 49 -5 100 5 24 15 35 43 47 20 9 45
20 56 26 11 6 57 13 103 15 l82 5 0 183 0 184 -612 -1 c-356 0 -604 -4 -592
-9 24 -9 56 -49 49 -60 -3 -4 4 -10 15 -13 11 -3 20 -12 20 -20 0 -19 43 -27
151 -27 72 0 89 -3 89 -15 0 -8 7 -15 15 -15 9 0 29 -7 45 -15 16 -8 68 -19
114 -24 85 -8 85 -9 149 -65 35 -31 68 -56 74 -56 5 0 27 -18 48 -40 21 -22
33 -40 26 -40 -11 0 -11 -3 0 -16 11 -14 9 -19 -11 -35 -14 -10 -34 -19 -45
-19 -11 0 -15 -4 -10 -8 16 -11 35 -60 35 -91 0 -19 -10 -37 -32 -56 -28 -23
-29 -26 -10 -20 22 6 22 5 10 -17 -7 -12 -13 -24 -14 -26 -2 -6 -70 22 -76 32
-5 7 -78 12 -214 13 -129 1 -211 6 -217 12 -6 6 -34 11 -62 11 -50 0 -156 30
-182 51 -7 6 -16 29 -19 50 -5 32 -11 39 -29 39 -13 0 -25 5 -27 10 -2 6 -23
12 -48 13 -39 2 -45 -1 -45 -17 0 -13 -10 -22 -30 -28 -38 -10 -115 -4 -124
10 -4 6 -29 11 -58 10 -44 0 -53 -4 -72 -29 -11 -15 -21 -33 -21 -40 0 -19
-68 -3 -105 25 -18 14 -41 43 -52 63 -16 33 -24 39 -63 45 -91 13 -150 39
-150 66 0 19 36 28 120 31 85 3 105 13 89 43 -16 30 4 39 82 36 46 -2 72 2 84
12 14 12 18 12 26 -1 14 -21 30 9 22 41 -7 31 -14 39 -20 23 -3 -7 -9 -13 -15
-13 -6 0 -7 7 -4 16 3 8 2 12 -4 9 -11 -7 -17 8 -45 98 l-18 57 -58 0 c-35 0
-61 -5 -66 -12 -4 -7 -8 -42 -8 -77 0 -42 -4 -66 -12 -69 -7 -2 -13 -15 -13
-28 0 -18 -5 -24 -22 -24 -12 0 -30 -8 -40 -17 -15 -13 -19 -14 -16 -3 4 19
-68 29 -207 28 -80 0 -118 -5 -140 -16 -16 -9 -52 -18 -78 -19 -26 -1 -55 -7
-65 -12 -9 -5 -42 -12 -72 -16 -59 -7 -166 14 -204 41 -11 8 -30 14 -41 14
-11 0 -40 10 -65 21 -25 11 -83 27 -130 35 -132 22 -164 28 -335 72 -222 56
-206 54 -237 27 -16 -13 -28 -28 -28 -32 0 -5 -9 -14 -20 -21 -13 -8 -20 -23
-20 -43 0 -22 -5 -32 -20 -36 -27 -7 -25 -30 3 -29 20 1 22 -4 25 -51 3 -46 8
-56 42 -87 23 -21 54 -38 77 -42 41 -7 80 -37 93 -70 5 -12 11 -95 15 -185 l6
-164 24 3 c17 2 25 -2 25 -12 0 -13 -9 -14 -47 -9 -32 4 -44 3 -40 -5 7 -11 1
-10 -46 3 -37 10 -68 -15 -47 -39 15 -19 7 -21 -12 -3 -19 18 -67 37 -72 29
-2 -4 -36 -6 -75 -4 -67 3 -71 5 -71 27 0 13 6 25 13 27 12 5 15 112 7 273 -3
79 3 114 31 167 16 29 19 58 20 153 1 79 -3 120 -10 125 -7 4 -20 22 -29 41
l-17 34 -1063 3 -1063 2 6 -167 c3 -93 10 -215 16 -272 6 -57 8 -144 4 -195
-5 -70 -3 -101 9 -137 23 -69 36 -173 46 -396 6 -111 14 -212 19 -225 5 -13
12 -52 16 -88 3 -36 11 -82 17 -104 5 -21 13 -107 18 -190 7 -128 5 -158 -8
-198 -19 -54 -30 -58 -146 -58 -90 1 -122 21 -111 72 11 52 32 85 65 105 29
17 30 20 30 89 0 39 3 91 6 115 l6 45 -48 22 c-27 12 -71 27 -99 33 -58 14
-73 24 -87 59 -24 59 -15 130 17 130 7 0 20 9 31 21 18 20 19 38 18 242 l-2
221 -26 23 c-14 12 -43 25 -64 28 -177 30 -197 40 -226 108 -23 55 -4 137 32
137 9 0 26 7 37 16 17 13 21 31 26 142 4 70 1 193 -4 275 l-11 147 -58 0 -58
0 0 -1791z m4160 1561 c0 -5 11 -10 23 -10 14 0 24 -6 24 -15 0 -19 -34 -19
-71 0 -15 8 -35 15 -42 15 -8 0 -14 5 -14 10 0 6 18 10 40 10 22 0 40 -4 40
-10z m311 -13 c-10 -9 -11 -8 -5 6 3 10 9 15 12 12 3 -3 0 -11 -7 -18z m-161
-77 c8 -5 11 -12 8 -15 -4 -4 -17 0 -30 9 -24 17 -5 23 22 6z m-1145 -478 c36
-31 55 -68 42 -82 -8 -9 -9 -11 -1 -7 16 9 74 -3 74 -16 0 -6 -15 -7 -36 -4
-29 5 -34 4 -24 -7 21 -26 50 -26 62 0 6 13 15 24 20 24 5 0 6 5 2 11 -9 14
16 59 33 59 7 0 13 -7 13 -15 0 -8 6 -12 14 -9 8 3 26 -2 40 -11 14 -10 26
-14 26 -9 0 4 5 3 11 -3 6 -6 18 -9 27 -6 10 4 13 2 8 -5 -4 -7 -19 -12 -34
-12 -25 -1 -26 -2 -9 -14 15 -12 16 -14 2 -20 -18 -7 -55 13 -55 31 0 6 6 13
13 16 16 6 6 16 -19 20 -10 1 -25 6 -31 10 -27 17 -12 -25 17 -50 17 -13 30
-32 30 -42 0 -9 7 -27 16 -39 12 -18 13 -26 4 -37 -14 -17 -50 -20 -50 -4 0 5
-5 7 -10 4 -6 -3 -18 1 -27 10 -14 14 -14 18 -2 26 8 5 22 9 32 9 21 0 22 13
2 30 -8 7 -15 19 -15 26 0 8 -5 14 -11 14 -7 0 -10 -12 -7 -30 3 -16 1 -30 -4
-30 -4 0 -8 5 -8 10 0 6 -5 10 -10 10 -6 0 -8 -11 -4 -25 3 -14 3 -32 0 -41
-5 -13 -13 -9 -41 20 -34 35 -53 47 -39 24 5 -8 2 -9 -9 -5 -27 10 -20 -9 13
-34 29 -24 38 -39 22 -39 -5 0 -27 16 -49 35 -48 41 -68 44 -78 13 -6 -20 -8
-20 -12 -5 -3 12 -15 17 -39 17 -40 0 -47 20 -6 21 25 1 26 1 4 7 -13 4 -23
10 -23 15 1 4 1 13 1 21 0 19 37 31 54 17 10 -9 15 -7 19 9 6 22 -8 28 -16 8
-4 -8 -8 -4 -12 10 -4 12 -11 22 -16 22 -5 0 -9 11 -9 25 0 14 -5 25 -11 25
-5 0 -7 5 -4 10 10 17 98 11 120 -8z m235 -1 c17 -33 11 -47 -10 -21 -11 14
-20 28 -20 33 0 14 20 7 30 -12z m127 -113 c3 -16 10 -31 16 -35 6 -4 8 0 5 8
-3 8 -2 23 2 34 7 19 9 18 18 -7 8 -20 23 -30 54 -40 24 -7 48 -19 55 -28 8
-10 12 -11 13 -2 0 18 15 15 41 -9 l24 -21 -22 5 c-34 7 -28 0 17 -23 22 -11
40 -26 40 -34 0 -22 44 -40 68 -27 30 16 49 13 26 -4 -16 -13 -17 -16 -4 -24
8 -5 35 -23 60 -40 48 -32 52 -32 56 2 1 12 3 31 5 42 1 11 5 -5 8 -35 4 -30
3 -59 0 -63 -9 -11 1 -47 12 -47 5 0 9 -18 9 -40 0 -22 -4 -40 -10 -40 -5 0
-10 -5 -10 -11 0 -5 6 -7 13 -3 9 5 9 3 -1 -7 -11 -12 -14 -12 -22 1 -5 8 -6
18 -4 22 3 5 2 17 -1 28 -5 16 -15 20 -51 20 -25 0 -44 5 -44 11 0 6 7 9 15 6
8 -4 17 -2 20 3 3 5 13 7 23 4 15 -5 14 -3 -2 10 -14 11 -17 23 -13 45 5 24 2
32 -18 45 -41 27 -49 15 -15 -24 21 -24 27 -60 10 -60 -5 0 -10 6 -10 14 0 8
-4 18 -10 21 -6 4 -7 -1 -3 -11 4 -11 2 -15 -7 -12 -8 2 -17 16 -21 30 -6 22
-4 26 10 21 12 -5 13 -3 5 6 -9 10 -17 10 -33 2 -17 -9 -21 -9 -21 2 0 12 -29
43 -57 60 -15 9 -10 -48 7 -68 8 -9 8 -15 2 -15 -6 0 -14 5 -17 10 -5 8 -12 7
-23 -2 -15 -12 -15 -10 0 14 19 28 16 34 -31 58 -15 8 -21 8 -17 1 4 -6 3 -11
-2 -11 -5 0 -12 10 -15 22 -4 12 -10 19 -14 15 -4 -4 2 -24 12 -44 14 -26 16
-38 8 -40 -7 -3 -9 -12 -6 -21 5 -13 0 -12 -19 6 -13 12 -30 22 -36 22 -7 0
-12 4 -12 10 0 5 -15 14 -32 20 -30 9 -28 9 17 5 49 -5 50 -5 21 10 -15 8 -35
15 -43 15 -7 0 -13 6 -12 13 4 35 -4 49 -36 63 -43 18 -59 18 -52 1 6 -17 -59
-35 -93 -26 -26 7 -17 14 25 21 16 3 20 11 19 41 -1 39 14 51 23 18 3 -11 17
-22 31 -26 15 -3 35 -8 45 -11 16 -5 18 -2 12 18 -7 22 -7 22 8 3 13 -17 18
-18 42 -7 14 7 31 9 37 6 7 -5 8 -2 4 5 -5 7 -14 10 -22 7 -8 -3 -14 -1 -14 4
0 6 -4 10 -10 10 -5 0 -7 -8 -4 -17 5 -15 3 -15 -13 2 -10 11 -26 19 -37 17
-10 -2 -16 0 -12 6 8 13 -20 36 -34 27 -6 -3 -10 3 -10 14 0 12 7 21 15 21 21
0 19 16 -4 39 -11 11 -25 30 -31 43 -6 13 6 5 30 -22 23 -24 44 -57 47 -72z
m1210 21 c96 -44 111 -83 112 -297 0 -87 3 -209 7 -272 5 -95 4 -119 -8 -131
-8 -8 -20 -31 -27 -51 -13 -40 -16 -41 -141 -67 -95 -20 -120 -17 -120 10 0
11 -4 19 -9 19 -20 0 -71 62 -71 86 0 13 12 43 28 66 l27 42 1 248 c0 178 4
252 12 260 7 7 12 19 12 28 0 31 25 70 54 84 33 16 36 15 123 -25z m-1777 -9
c13 -8 13 -10 -2 -10 -9 0 -20 5 -23 10 -8 13 5 13 25 0z m-240 -10 c0 -5 -4
-10 -10 -10 -5 0 -10 5 -10 10 0 6 5 10 10 10 6 0 10 -4 10 -10z m-296 -41 c4
-25 1 -41 -8 -48 -18 -15 -28 10 -20 47 13 54 19 54 28 1z m373 -12 c3 -5 -1
-13 -8 -18 -11 -6 -10 -9 4 -15 18 -6 24 -24 8 -24 -5 0 -28 16 -52 35 l-42
36 42 -2 c23 -2 45 -7 48 -12z m198 3 c-3 -5 2 -10 12 -10 14 0 13 -3 -7 -17
-14 -9 -31 -23 -37 -29 -10 -10 -19 -9 -43 2 -16 9 -30 19 -30 24 0 10 39 22
68 20 12 -1 22 3 22 9 0 6 5 11 11 11 5 0 7 -4 4 -10z m-285 -20 l25 -20 -32
11 c-18 6 -33 15 -33 20 0 14 13 10 40 -11z m480 -57 c0 -13 -3 -13 -15 -3 -8
7 -15 16 -15 21 0 5 7 6 15 3 8 -4 15 -13 15 -21z m331 -13 c23 -13 25 -30 4
-30 -8 0 -15 -5 -15 -11 0 -5 5 -7 10 -4 6 3 10 2 10 -4 0 -18 -41 -34 -53
-22 -8 8 -8 14 -2 19 6 4 10 13 11 20 4 48 4 48 35 32z m-874 -22 c-3 -8 -6
-5 -6 6 -1 11 2 17 5 13 3 -3 4 -12 1 -19z m126 15 c-7 -2 -19 -2 -25 0 -7 3
-2 5 12 5 14 0 19 -2 13 -5z m87 -13 c0 -5 -9 -6 -20 -3 -11 3 -20 9 -20 13 0
5 9 6 20 3 11 -3 20 -9 20 -13z m1110 -80 c0 -5 -4 -10 -10 -10 -5 0 -10 5
-10 10 0 6 5 10 10 10 6 0 10 -4 10 -10z m-375 -20 c3 -6 -4 -10 -17 -10 -18
0 -20 2 -8 10 19 12 18 12 25 0z m-55 -19 c0 -12 -26 -32 -33 -25 -6 7 14 33
26 34 4 0 7 -4 7 -9z m-1300 -52 c0 -6 -4 -7 -10 -4 -5 3 -10 11 -10 16 0 6 5
7 10 4 6 -3 10 -11 10 -16z m1525 1 c3 -5 2 -10 -4 -10 -5 0 -13 5 -16 10 -3
6 -2 10 4 10 5 0 13 -4 16 -10z m305 -20 c0 -4 -7 -10 -15 -14 -11 -4 -15 2
-15 21 0 21 2 24 15 13 8 -7 15 -16 15 -20z m2057 -6 c3 -8 9 -14 15 -14 14 0
56 -51 78 -97 12 -25 20 -63 20 -92 0 -33 5 -51 14 -54 8 -3 17 -21 21 -39 4
-18 12 -38 17 -45 13 -16 2 -81 -29 -162 -13 -36 -29 -78 -34 -92 -12 -31 -69
-79 -113 -96 -48 -18 -132 -16 -163 4 -28 18 -53 68 -53 105 0 12 8 31 19 42
15 17 21 49 30 167 6 81 11 174 11 206 0 83 15 118 66 157 45 35 90 39 101 10z
m-2293 -10 c27 -10 18 -21 -14 -16 -16 2 -30 8 -30 13 0 10 21 12 44 3z m-114
-14 c0 -5 -4 -10 -10 -10 -5 0 -10 5 -10 10 0 6 5 10 10 10 6 0 10 -4 10 -10z
m160 0 c0 -5 -2 -10 -4 -10 -3 0 -8 5 -11 10 -3 6 -1 10 4 10 6 0 11 -4 11
-10z m195 -50 c3 -5 12 -7 21 -3 14 5 64 -41 64 -59 0 -16 -51 -7 -57 10 -3 9
-17 27 -32 39 -14 13 -21 23 -14 23 6 0 14 -4 18 -10z m25 -100 c0 -9 -4 -20
-9 -25 -5 -6 -11 -21 -14 -35 -4 -24 -4 -24 -6 3 0 16 -7 27 -15 27 -17 0 -29
27 -16 35 6 4 15 3 20 0 6 -3 10 -2 10 3 0 5 7 9 15 9 8 0 15 -8 15 -17z m100
-20 c0 -5 -4 -10 -10 -10 -5 0 -10 5 -10 10 0 6 5 10 10 10 6 0 10 -4 10 -10z
m15 -40 c3 -5 -1 -10 -9 -10 -9 0 -16 5 -16 10 0 6 4 10 9 10 6 0 13 -4 16
-10z m5 -56 c0 -8 -5 -12 -10 -9 -6 4 -8 11 -5 16 9 14 15 11 15 -7z m-63 -50
c-7 -7 -37 7 -37 17 0 6 9 5 21 -1 11 -7 19 -14 16 -16z m-371 8 c-3 -5 7 -7
22 -4 19 2 43 -8 84 -37 32 -22 64 -38 72 -35 13 5 91 -68 91 -85 0 -10 29
-76 35 -81 19 -16 40 -58 40 -82 0 -16 6 -37 12 -48 9 -14 10 -22 1 -31 -12
-12 -6 -126 7 -144 4 -5 10 -22 14 -37 3 -16 11 -28 16 -28 21 0 41 -62 39
-118 -3 -52 -1 -57 22 -63 15 -5 18 -7 7 -8 -10 -1 -18 -5 -18 -9 0 -4 -9 -8
-20 -8 -11 0 -20 3 -20 6 0 3 -8 6 -17 6 -10 1 -47 7 -83 13 -36 7 -84 15
-107 18 -24 3 -40 9 -38 14 3 4 -5 15 -17 23 -12 9 -18 16 -13 16 5 0 -1 7
-14 16 -14 10 -45 17 -77 18 -29 1 -59 7 -66 14 -6 6 -19 12 -28 12 -10 0 -32
8 -51 17 -19 10 -42 16 -53 14 -10 -1 -22 2 -26 8 -7 13 -47 15 -101 5 -22 -3
-46 -1 -59 6 -17 9 -26 8 -48 -6 -18 -12 -27 -13 -30 -6 -6 19 -36 14 -62 -11
-22 -21 -26 -22 -37 -8 -11 14 -13 14 -26 -3 -14 -19 -43 -14 -31 5 4 7 -18 8
-64 4 -47 -5 -72 -4 -76 4 -9 14 -53 15 -61 1 -3 -5 -22 -10 -42 -10 -29 0
-33 3 -24 14 9 11 7 15 -11 20 -38 10 -48 7 -48 -13 0 -10 -6 -21 -12 -24 -7
-2 -68 -2 -135 0 -96 3 -127 1 -145 -10 -13 -8 -36 -18 -53 -21 -19 -4 -56
-33 -100 -77 -59 -59 -74 -69 -95 -64 l-25 7 23 -20 23 -20 -53 -7 c-29 -4
-71 -5 -93 -3 l-40 3 -6 55 c-10 80 -1 120 27 130 15 6 24 18 24 30 0 12 11
38 25 58 19 27 25 50 25 88 0 33 5 56 15 64 10 9 13 25 10 61 -5 49 17 181 38
230 14 34 47 56 57 39 11 -18 32 -1 25 20 -8 26 15 37 32 14 14 -19 15 -19 28
0 10 13 21 17 37 13 12 -4 28 -1 36 5 13 11 191 19 220 10 6 -2 12 -12 12 -21
0 -22 32 -38 93 -46 33 -4 47 -11 47 -21 0 -13 -8 -14 -40 -9 -49 8 -55 -10
-6 -19 23 -5 36 -13 40 -29 4 -17 8 -19 18 -9 19 19 28 14 28 -18 0 -16 5 -30
10 -30 6 0 10 16 10 36 0 39 18 64 48 64 10 0 34 5 52 12 26 9 35 9 38 0 2 -7
21 -12 43 -12 30 0 39 4 40 18 0 13 3 11 10 -6 5 -13 14 -20 20 -17 6 4 8 13
5 20 -7 18 18 37 38 29 9 -3 16 -15 16 -26 0 -26 32 -20 40 7 5 20 28 24 61
10 20 -8 37 14 19 25 -7 5 -8 10 -2 14 5 3 16 -1 23 -10 9 -11 22 -13 51 -9
21 4 38 3 38 -2 0 -12 58 -4 66 8 3 5 0 9 -5 9 -6 0 -11 9 -11 20 0 21 15 27
25 10 9 -15 25 -12 25 4 0 23 22 31 32 13 6 -13 22 -16 61 -15 29 1 44 3 35 6
-20 4 -20 4 -12 26 3 9 17 16 31 16 13 0 22 -4 19 -8z m420 -7 c13 -13 13 -15
1 -15 -8 0 -20 7 -27 15 -9 11 -10 15 -1 15 7 0 19 -7 27 -15z m24 -50 c11
-13 10 -14 -4 -9 -9 3 -16 10 -16 15 0 13 6 11 20 -6z m4 -30 c8 -8 22 -15 30
-15 23 0 20 -27 -4 -40 -11 -6 -21 -8 -21 -5 -1 3 -3 10 -4 15 -1 6 -3 17 -4
25 0 8 -7 15 -15 15 -8 0 -18 5 -21 10 -10 16 22 12 39 -5z m-1259 -35 c3 -5
1 -10 -4 -10 -6 0 -11 5 -11 10 0 6 2 10 4 10 3 0 8 -4 11 -10z m2413 -30 c9
-12 17 -37 18 -58 0 -20 4 -118 8 -217 l8 -180 -24 -35 c-23 -33 -27 -35 -82
-35 -49 1 -60 4 -77 25 -22 29 -24 63 -6 82 25 25 29 53 28 186 -2 121 0 136
21 175 41 76 74 94 106 57z m-1178 -51 c0 -5 -4 -9 -10 -9 -5 0 -10 7 -10 16
0 8 5 12 10 9 6 -3 10 -10 10 -16z m102 -11 c-6 -6 -15 -8 -19 -4 -4 4 -1 11
7 16 19 12 27 3 12 -12z m-4 -140 c-3 -7 -13 -15 -24 -17 -16 -3 -17 -1 -5 13
16 19 34 21 29 4z m0 -55 c-2 -10 -12 -19 -23 -21 -17 -3 -17 -1 -5 7 8 6 11
11 7 11 -12 0 2 20 14 20 6 0 9 -8 7 -17z m-33 -73 c3 -5 1 -10 -4 -10 -6 0
-11 5 -11 10 0 6 2 10 4 10 3 0 8 -4 11 -10z m85 -38 c0 -4 -5 -13 -12 -20
-18 -18 -28 -15 -28 8 0 13 7 20 20 20 11 0 20 -4 20 -8z m-10 -82 c0 -5 -4
-10 -10 -10 -5 0 -10 5 -10 10 0 6 5 10 10 10 6 0 10 -4 10 -10z m-10 -40 c0
-5 -4 -10 -10 -10 -5 0 -10 5 -10 10 0 6 5 10 10 10 6 0 10 -4 10 -10z m-993
-11 c-14 -8 -22 -8 -30 0 -8 8 -3 11 19 11 25 -1 27 -2 11 -11z m982 -56 c0
-25 -1 -26 -9 -8 -12 27 -12 35 0 35 6 0 10 -12 9 -27z m-100 -175 c5 -18 13
-61 16 -96 4 -35 9 -61 11 -59 8 8 13 102 5 107 -4 3 -11 18 -15 34 l-7 29 26
-17 c19 -13 30 -14 45 -6 14 7 26 8 40 0 17 -9 18 -18 13 -93 -4 -59 -1 -94
10 -127 13 -39 13 -62 2 -175 -21 -210 -39 -279 -83 -327 -30 -33 -39 -35 -44
-10 -2 9 -10 -25 -17 -77 -17 -118 -53 -250 -86 -314 -14 -27 -25 -55 -25 -62
0 -7 -7 -18 -15 -25 -9 -7 -14 -18 -12 -24 2 -6 -7 -19 -21 -30 -13 -10 -27
-28 -32 -40 -7 -18 -8 -16 -7 11 1 17 6 29 11 25 5 -3 6 2 3 12 -4 10 1 29 11
44 9 14 11 23 5 19 -9 -6 -13 -2 -13 12 0 12 4 21 9 21 17 0 26 91 10 101 -11
6 -9 13 9 32 19 20 31 57 18 57 -2 0 -13 3 -23 6 -13 4 -14 3 -5 -4 11 -7 9
-10 -8 -15 -29 -8 -34 10 -21 90 12 79 5 186 -15 224 -18 35 -61 69 -98 76
-16 4 -31 14 -33 25 -3 11 -14 18 -29 18 -13 0 -24 5 -24 10 0 6 -7 10 -16 10
-8 0 -12 -4 -9 -10 3 -5 1 -10 -4 -10 -6 0 -11 4 -11 8 0 5 -10 14 -22 20 -22
10 -21 11 8 11 18 1 42 9 55 20 22 18 21 18 -92 24 -191 11 -232 22 -271 71
-28 34 -21 37 33 9 45 -24 64 -27 182 -31 113 -4 143 -1 206 16 82 24 104 39
133 97 26 49 58 161 50 170 -3 3 4 8 16 12 21 5 23 11 21 65 -2 57 11 86 33
72 4 -3 18 2 30 10 31 22 35 21 47 -16z m-3494 -15 c24 -58 14 -113 -20 -113
-23 0 -55 44 -55 77 0 44 60 72 75 36z m1478 -3 c31 0 37 -4 37 -20 0 -18 -2
-19 -22 -8 -13 6 -42 13 -66 13 -23 1 -48 7 -55 14 -10 11 -5 12 28 7 22 -3
57 -6 78 -6z m-163 -59 c0 -4 -5 -12 -11 -18 -8 -8 -6 -18 7 -37 11 -14 24
-26 29 -26 20 0 44 -56 51 -118 5 -52 4 -63 -10 -68 -9 -3 -16 -16 -16 -29 0
-13 -7 -26 -16 -29 -14 -5 -16 -18 -12 -83 4 -63 9 -80 27 -94 11 -9 21 -21
21 -26 0 -14 44 -48 58 -45 6 2 12 -6 12 -17 0 -11 5 -23 10 -26 16 -10 12
-68 -6 -93 -15 -22 -15 -25 5 -46 19 -20 19 -24 5 -44 -8 -12 -13 -26 -10 -31
10 -16 -25 -21 -41 -6 -8 8 -19 13 -24 10 -5 -4 -14 5 -21 19 -6 14 -15 26
-20 26 -14 0 -9 57 7 70 18 15 14 45 -16 128 -10 29 -26 93 -33 142 -8 49 -20
98 -26 109 -6 11 -15 58 -21 103 -7 54 -16 87 -27 95 -14 12 -14 16 0 46 9 18
14 45 11 58 -3 19 1 28 19 36 23 10 48 7 48 -6z m3669 -20 c20 -16 22 -23 16
-59 -9 -54 -32 -70 -86 -63 -66 9 -71 27 -29 111 4 8 17 15 28 15 11 0 24 3
28 8 11 10 16 9 43 -12z m-1761 -40 c30 -11 45 -13 50 -5 4 6 17 13 30 16 18
5 22 2 22 -18 0 -30 -36 -141 -56 -172 -37 -58 -142 -92 -284 -92 -109 0 -191
18 -230 49 -36 29 -110 144 -110 171 0 8 12 -6 27 -33 23 -41 32 -48 66 -54
22 -3 49 -15 61 -27 14 -14 36 -21 71 -23 27 -2 82 -6 120 -8 48 -3 64 -2 50
4 -16 8 -17 10 -4 10 9 1 19 8 23 16 3 8 15 15 26 15 11 0 20 4 20 10 0 5 11
12 25 16 14 3 25 10 25 15 0 5 11 9 24 9 45 0 38 20 -16 45 -47 22 -50 26 -30
31 19 6 22 11 17 32 -5 21 -3 23 12 17 10 -4 37 -15 61 -24z m-662 -15 c21
-22 54 -95 54 -120 0 -14 8 -33 19 -43 35 -33 54 -83 47 -125 -5 -33 -4 -38
13 -38 10 0 24 -7 31 -15 7 -8 16 -15 21 -15 14 0 11 28 -3 33 -9 4 -8 6 3 6
29 2 62 -45 67 -98 l4 -49 -37 5 c-37 5 -115 -22 -115 -39 0 -5 -11 -8 -25 -8
-14 0 -25 5 -25 10 0 15 -30 12 -31 -2 0 -7 -5 -1 -11 15 -5 15 -13 27 -17 27
-10 0 -51 -48 -51 -59 0 -16 -30 -21 -50 -8 -11 6 -20 18 -20 25 0 9 -6 12
-16 8 -9 -4 -23 -1 -30 5 -9 7 -34 9 -68 5 -51 -5 -54 -4 -60 19 -4 14 -2 34
4 45 11 21 44 27 54 11 3 -5 16 -7 28 -4 14 4 26 0 34 -12 12 -16 14 -17 20
-2 9 23 24 21 24 -3 0 -23 10 -26 28 -8 19 19 15 138 -5 160 -9 10 -21 18 -28
18 -7 0 -10 11 -7 30 2 17 -1 37 -8 45 -11 13 -14 13 -26 -2 -12 -16 -13 -16
-7 5 6 26 25 29 47 7 9 -9 17 -11 21 -5 3 5 -3 15 -15 22 -25 16 -25 43 0 112
15 40 27 56 43 59 30 6 78 -3 93 -17z m-840 -27 c3 -5 -2 -9 -10 -9 -18 0 -20
-9 -6 -30 8 -13 10 -13 10 2 0 11 5 15 15 12 11 -5 12 -10 4 -26 -6 -11 -7
-18 -1 -14 16 10 99 -77 110 -117 7 -26 7 -38 -1 -42 -7 -3 6 -3 28 0 26 3 35
1 26 -5 -11 -6 -7 -10 15 -13 16 -2 4 -3 -26 0 -30 2 -65 10 -77 18 -12 8 -26
15 -30 15 -4 0 7 -10 26 -22 24 -16 58 -23 125 -29 l91 -8 -100 4 c-55 2 -111
8 -125 15 -30 14 -79 88 -101 153 -9 26 -19 50 -23 54 -3 3 -6 18 -6 33 0 24
3 27 25 22 14 -2 28 -8 31 -13z m634 -74 c-6 -19 -15 -37 -19 -39 -4 -3 0 17
8 44 9 27 17 44 19 39 2 -5 -2 -25 -8 -44z m-44 -87 c-9 -12 -16 -19 -16 -15
0 11 24 47 28 42 2 -2 -3 -14 -12 -27z m-31 -37 c-7 -12 -45 -34 -45 -27 0 3
10 14 22 26 22 20 36 21 23 1z m105 -37 c0 -8 -4 -12 -10 -9 -5 3 -10 13 -10
21 0 8 5 12 10 9 6 -3 10 -13 10 -21z m-183 0 c-3 -3 -12 -4 -19 -1 -8 3 -5 6
6 6 11 1 17 -2 13 -5z m-144 -11 c-7 -2 -21 -2 -30 0 -10 3 -4 5 12 5 17 0 24
-2 18 -5z m97 -3 c-8 -5 -24 -9 -35 -9 -16 1 -16 2 5 9 35 11 48 11 30 0z
m-700 -159 c0 -11 3 -26 6 -35 3 -9 2 -16 -4 -16 -5 0 -12 16 -14 35 -2 19 0
35 4 35 4 0 8 -9 8 -19z m1850 -451 c0 -23 -5 -30 -19 -30 -23 0 -40 22 -23
28 7 2 12 10 12 18 0 8 7 14 15 14 10 0 15 -10 15 -30z m-1435 -10 c3 -5 1
-10 -4 -10 -6 0 -11 5 -11 10 0 6 2 10 4 10 3 0 8 -4 11 -10z m25 -94 c0 -3
-4 -8 -10 -11 -5 -3 -10 -1 -10 4 0 6 5 11 10 11 6 0 10 -2 10 -4z m-80 -57
c0 -5 -4 -9 -10 -9 -5 0 -10 7 -10 16 0 8 5 12 10 9 6 -3 10 -10 10 -16z
m1065 -155 c11 -8 14 -14 8 -14 -7 0 -15 5 -18 10 -4 6 -16 3 -30 -9 -15 -11
-34 -17 -50 -13 -30 5 -37 14 -29 37 5 13 15 15 53 9 25 -4 55 -13 66 -20z
m-580 6 c3 -5 1 -10 -4 -10 -6 0 -11 5 -11 10 0 6 2 10 4 10 3 0 8 -4 11 -10z
m-475 -150 c0 -5 -2 -10 -4 -10 -3 0 -8 5 -11 10 -3 6 -1 10 4 10 6 0 11 -4
11 -10z m1375 -18 c-3 -3 -11 0 -18 7 -9 10 -8 11 6 5 10 -3 15 -9 12 -12z
m-125 -512 c0 -5 -7 -10 -15 -10 -8 0 -15 5 -15 10 0 6 7 10 15 10 8 0 15 -4
15 -10z m-47 -37 c-7 -18 -33 -17 -33 1 0 8 8 14 19 13 11 0 17 -6 14 -14z
m-48 -14 c10 -14 1 -21 -19 -13 -9 3 -13 10 -10 15 7 12 21 11 29 -2z m-55
-139 c0 -5 -4 -10 -10 -10 -5 0 -10 5 -10 10 0 6 5 10 10 10 6 0 10 -4 10 -10z
m-10 -28 c0 -11 -33 -42 -45 -42 -7 0 -12 12 -11 28 1 24 4 27 29 24 15 -2 27
-7 27 -10z m-20 -122 c0 -5 -4 -10 -10 -10 -5 0 -10 5 -10 10 0 6 5 10 10 10
6 0 10 -4 10 -10z m-360 -21 c0 -6 -4 -7 -10 -4 -5 3 -10 11 -10 16 0 6 5 7
10 4 6 -3 10 -11 10 -16z"/>
<path d="M3088 5593 c6 -2 18 -2 25 0 6 3 1 5 -13 5 -14 0 -19 -2 -12 -5z"/>
<path d="M3100 5562 c0 -5 11 -14 25 -20 29 -13 33 -5 8 14 -21 15 -33 18 -33
6z"/>
<path d="M3150 5566 c0 -2 9 -6 20 -9 11 -3 20 -1 20 4 0 5 -9 9 -20 9 -11 0
-20 -2 -20 -4z"/>
<path d="M3125 5510 c-3 -5 3 -20 14 -32 12 -12 21 -17 21 -10 0 6 -4 13 -10
17 -5 3 -7 12 -3 20 6 17 -12 21 -22 5z"/>
<path d="M3250 5440 c0 -5 5 -10 11 -10 5 0 7 5 4 10 -3 6 -8 10 -11 10 -2 0
-4 -4 -4 -10z"/>
<path d="M3635 5390 c-3 -5 -21 -10 -38 -10 l-32 0 33 -21 c17 -12 32 -29 32
-40 0 -10 4 -19 9 -19 11 0 9 39 -3 58 -4 7 -1 12 8 12 9 0 16 4 16 9 0 15
-18 23 -25 11z"/>
<path d="M3582 5340 c7 -11 16 -20 21 -20 4 0 3 9 -3 20 -6 11 -15 20 -20 20
-6 0 -5 -9 2 -20z"/>
<path d="M3670 5332 c0 -8 43 -32 55 -32 13 0 3 29 -11 34 -22 9 -44 7 -44 -2z"/>
<path d="M3755 5310 c3 -5 8 -10 11 -10 2 0 4 5 4 10 0 6 -5 10 -11 10 -5 0
-7 -4 -4 -10z"/>
<path d="M3960 5189 c0 -9 7 -22 15 -29 19 -16 19 0 0 26 -12 16 -14 16 -15 3z"/>
<path d="M2720 4671 c0 -5 9 -7 20 -4 11 3 20 7 20 9 0 2 -9 4 -20 4 -11 0
-20 -4 -20 -9z"/>
<path d="M3426 4655 c-3 -8 -1 -15 4 -15 6 0 10 7 10 15 0 8 -2 15 -4 15 -2 0
-6 -7 -10 -15z"/>
<path d="M2850 4636 c0 -2 7 -9 15 -16 12 -10 15 -10 15 4 0 9 -7 16 -15 16
-8 0 -15 -2 -15 -4z"/>
<path d="M4324 3835 c-4 -8 -11 -12 -16 -9 -11 7 -8 -11 19 -135 9 -41 19 -69
21 -62 2 7 -1 32 -8 56 -8 28 -10 66 -5 104 7 58 1 79 -11 46z"/>
<path d="M4262 3683 c-1 -40 2 -73 7 -73 5 0 5 -16 0 -37 -14 -61 -11 -133 6
-150 22 -21 31 -9 17 22 -7 14 -12 36 -11 48 1 21 1 20 9 -3 7 -20 8 -16 10
25 3 68 1 87 -15 111 -8 12 -16 46 -18 75 -3 48 -3 46 -5 -18z"/>
<path d="M3578 3473 c7 -3 16 -2 19 1 4 3 -2 6 -13 5 -11 0 -14 -3 -6 -6z"/>
<path d="M4121 3183 c0 -67 0 -67 13 -33 15 44 15 92 -1 98 -10 3 -13 -14 -12
-65z"/>
<path d="M4061 2664 c0 -11 3 -14 6 -6 3 7 2 16 -1 19 -3 4 -6 -2 -5 -13z"/>
<path d="M2003 3774 c3 -11 8 -50 12 -89 14 -163 29 -186 37 -60 5 75 -15 154
-41 163 -9 3 -11 -2 -8 -14z"/>
<path d="M3490 3586 c7 -7 13 -7 20 0 6 6 3 10 -10 10 -13 0 -16 -4 -10 -10z"/>
<path d="M3155 3650 c3 -5 8 -10 11 -10 2 0 4 5 4 10 0 6 -5 10 -11 10 -5 0
-7 -4 -4 -10z"/>
<path d="M3186 3535 c4 -8 8 -15 10 -15 2 0 4 7 4 15 0 8 -4 15 -10 15 -5 0
-7 -7 -4 -15z"/>
<path d="M4923 6223 c-24 -2 -43 -8 -43 -12 0 -12 101 -20 125 -11 18 7 18 9
-8 19 -16 6 -29 10 -30 9 -1 -1 -21 -3 -44 -5z"/>
<path d="M5160 5850 c0 -6 7 -10 15 -10 8 0 15 2 15 4 0 2 -7 6 -15 10 -8 3
-15 1 -15 -4z"/>
<path d="M2387 3093 c-16 -25 39 -92 76 -93 28 0 20 17 -23 47 -21 15 -41 35
-42 43 -3 11 -6 12 -11 3z"/>
<path d="M2518 2948 c-16 -5 -28 -14 -28 -19 0 -17 47 -9 65 11 21 23 9 25
-37 8z"/>
<path d="M2460 2931 c0 -6 5 -13 10 -16 6 -3 10 1 10 9 0 9 -4 16 -10 16 -5 0
-10 -4 -10 -9z"/>
<path d="M2350 2852 c0 -5 7 -17 16 -28 14 -17 15 -17 10 -1 -3 10 -6 23 -6
28 0 5 -4 9 -10 9 -5 0 -10 -4 -10 -8z"/>
<path d="M2411 2641 c-8 -6 -9 -11 -3 -15 6 -3 14 -1 17 5 9 14 2 20 -14 10z"/>
<path d="M2449 2250 c-1 -18 -3 -20 -6 -7 -2 9 -8 15 -13 12 -5 -3 -6 -13 -3
-23 5 -13 3 -15 -7 -5 -13 12 -21 5 -90 -87 -14 -19 -32 -41 -40 -50 -9 -9
-31 -39 -49 -67 -18 -28 -46 -60 -62 -72 -23 -17 -28 -27 -23 -44 6 -22 6 -22
-10 -2 -18 23 -21 13 -6 -16 7 -13 7 -19 0 -19 -5 0 -10 7 -10 15 0 8 -5 15
-11 15 -6 0 -8 -9 -4 -22 5 -18 4 -19 -4 -8 -9 12 -11 12 -16 -2 -4 -9 -13
-14 -21 -11 -8 3 -20 0 -28 -6 -11 -9 -15 -7 -19 11 -5 18 -9 20 -19 10 -6 -6
-20 -12 -30 -12 -10 0 -22 -8 -25 -17 -8 -22 -35 -43 -45 -37 -12 8 -9 -21 5
-47 6 -13 20 -24 30 -25 46 -2 60 -4 55 -9 -8 -9 -49 -16 -108 -20 -30 -2 -58
-4 -62 -4 -5 -1 -8 -8 -8 -17 0 -12 -6 -15 -21 -11 -13 3 -22 0 -26 -10 -5
-12 -7 -12 -14 -1 -7 10 -9 9 -9 -4 0 -10 -5 -18 -11 -18 -6 0 -8 9 -4 20 4
11 2 20 -4 20 -6 0 -12 -15 -12 -32 l-2 -33 -8 35 c-6 26 -7 17 -4 -35 2 -47
1 -60 -5 -40 -7 27 -8 28 -9 5 -1 -17 -4 -21 -12 -13 -6 6 -8 17 -4 23 4 7 9
31 10 54 4 62 -12 13 -24 -74 -5 -40 -13 -75 -17 -78 -3 -4 -4 9 -1 28 3 19 8
58 11 85 6 53 5 50 -23 -47 -8 -28 -9 -25 -5 21 4 61 -1 63 -16 5 -9 -39 -10
-39 -6 14 4 65 -3 60 -20 -15 l-13 -58 5 60 c7 73 -2 69 -15 -6 -9 -51 -10
-50 -5 26 4 88 0 89 -15 5 l-10 -55 4 65 c3 53 2 60 -6 37 -6 -15 -15 -25 -20
-21 -5 3 -9 -4 -9 -16 0 -12 5 -18 10 -15 6 3 10 2 10 -4 0 -26 -21 -19 -27 9
-4 22 -8 28 -14 18 -6 -9 -9 -9 -9 -1 0 9 -8 9 -30 1 -25 -8 -28 -13 -19 -24
7 -8 9 -17 5 -21 -3 -3 -6 -1 -6 6 0 7 -7 11 -14 8 -10 -4 -13 -1 -9 8 4 12
-3 14 -28 12 -18 -1 -35 -9 -37 -16 -3 -10 1 -12 17 -8 24 6 29 -10 6 -19 -8
-4 -15 -12 -15 -19 0 -7 -6 -15 -14 -18 -8 -3 -16 -18 -19 -34 -3 -21 -4 -17
-6 14 -1 32 3 43 17 46 13 4 11 5 -5 6 -15 1 -23 -5 -23 -15 0 -8 -4 -12 -10
-9 -5 3 -10 1 -10 -5 0 -6 -4 -9 -9 -5 -5 3 -13 -5 -17 -17 -7 -22 -7 -22 -15
-3 -7 19 -8 19 -8 -1 -1 -12 -8 -25 -17 -28 -23 -9 -24 -8 -24 14 0 11 4 20
10 20 5 0 6 -7 3 -17 -4 -11 -3 -14 5 -9 7 4 12 15 12 26 0 13 -5 17 -20 13
-11 -3 -20 -10 -21 -17 -1 -6 -5 0 -9 14 -7 21 -8 22 -9 5 -1 -26 -40 -32 -42
-7 -1 9 -5 1 -9 -18 -4 -19 -8 -26 -9 -15 -1 25 -41 29 -42 5 0 -11 -3 -9 -10
5 -6 13 -7 -11 -3 -70 6 -102 13 -124 15 -44 1 46 3 49 9 24 5 -18 8 -23 9
-11 2 29 8 16 15 -34 4 -31 3 -40 -4 -30 -8 12 -10 10 -10 -11 0 -15 7 -29 15
-33 8 -3 15 -11 15 -18 0 -9 -3 -9 -12 0 -28 28 -38 13 -39 -55 -2 -64 -2 -62
-14 42 l-11 110 -5 -75 -4 -75 -9 103 c-5 56 -12 102 -17 102 -5 0 -10 -6 -11
-12 0 -7 -4 7 -8 32 l-7 45 -3 -45 c-2 -42 -3 -43 -10 -15 -6 23 -8 14 -9 -39
-1 -82 -7 -83 -14 -3 -6 71 -17 86 -18 26 l-2 -44 -7 35 -7 35 -2 -35 -2 -35
-14 30 c-7 17 -14 26 -14 20 -1 -5 -5 -5 -9 2 -8 13 -52 7 -52 -8 0 -4 13 -23
30 -41 16 -18 30 -38 30 -45 0 -7 5 -13 10 -13 18 0 10 -18 -10 -23 -11 -3
-20 -2 -20 3 0 4 -10 11 -23 15 -14 4 -18 8 -9 12 9 3 3 12 -18 24 -17 11 -35
17 -40 14 -5 -3 -11 -1 -15 5 -4 6 -10 8 -15 5 -5 -3 -18 0 -28 6 -14 9 -23 9
-38 0 -17 -11 -17 -12 -1 -7 10 3 36 -3 57 -14 41 -21 63 -44 33 -34 -11 3 -7
-4 12 -21 21 -19 24 -24 8 -16 -27 14 -36 14 -28 1 3 -6 -1 -7 -10 -3 -13 5
-14 7 -3 14 10 6 9 12 -7 24 -16 12 -17 14 -2 9 28 -10 20 4 -13 21 -37 19
-51 19 -26 0 11 -8 15 -15 9 -15 -7 0 -15 5 -18 10 -3 6 -11 10 -17 10 -6 0
-5 -6 2 -16 12 -13 10 -14 -14 -3 -19 9 -23 15 -14 21 18 11 5 10 -27 -2 -23
-9 -25 -13 -15 -25 7 -8 18 -15 24 -15 6 0 2 7 -8 15 -16 12 -17 15 -4 15 9 0
26 -9 39 -19 l24 -20 -22 6 c-14 3 -23 1 -23 -6 0 -7 -8 -6 -23 4 -22 14 -25
13 -45 -8 -12 -13 -19 -27 -15 -30 3 -4 -1 -7 -11 -7 -9 0 -14 -4 -11 -10 3
-5 2 -10 -3 -10 -5 0 -12 -18 -16 -39 l-6 -39 -102 -6 c-57 -3 -165 -9 -240
-12 l-138 -6 0 -45 c0 -36 5 -49 25 -65 14 -11 25 -25 25 -32 0 -7 9 -25 20
-38 17 -23 28 -26 112 -31 51 -2 114 -11 141 -18 47 -13 47 -14 47 -55 0 -23
-9 -81 -20 -128 -24 -99 -28 -126 -45 -301 -13 -131 -18 -157 -40 -185 -6 -8
-19 -50 -30 -92 -16 -69 -17 -81 -4 -115 l15 -38 1394 0 c1230 0 1394 2 1398
15 5 13 3 13 -13 0 -14 -11 -17 -11 -11 -1 5 8 3 17 -5 23 -11 8 -10 9 4 4 20
-6 22 7 3 26 -10 11 -11 19 -4 33 8 13 8 16 -2 10 -9 -6 -10 -1 -5 16 l7 24
-28 -25 -28 -25 23 30 c12 16 18 31 13 33 -6 2 -8 12 -5 22 3 12 0 20 -6 20
-7 0 -10 4 -6 9 12 21 -7 89 -29 100 -11 7 -14 10 -5 7 12 -3 17 2 17 20 0 13
-4 21 -8 19 -5 -3 -7 11 -6 30 3 30 0 35 -13 30 -13 -5 -14 -4 -3 6 17 18 15
34 -3 19 -16 -14 -21 0 -5 16 11 11 1 56 -11 48 -5 -3 -6 2 -2 11 8 21 -17 38
-34 23 -10 -8 -12 -7 -7 6 4 11 13 15 28 11 14 -4 17 -3 8 3 -8 5 -10 16 -6
28 6 16 3 15 -21 -6 l-29 -25 22 29 c14 18 20 36 16 49 -7 23 -12 47 -13 66
-1 8 -7 11 -17 7 -13 -5 -14 -3 -6 7 6 7 9 22 7 32 -2 11 -4 22 -4 24 -1 2
-11 -4 -23 -15 l-23 -19 23 26 c18 20 21 31 14 50 -5 13 -7 30 -5 37 3 6 1 12
-4 12 -4 0 -9 15 -9 33 -2 48 -12 90 -46 207 -17 58 -34 125 -37 150 -4 25
-38 140 -75 255 -38 116 -77 239 -89 275 -11 36 -38 100 -59 142 -39 75 -40
82 -45 200 -3 68 -9 127 -14 133 -5 5 -9 -1 -10 -15z m-353 -562 c5 -7 3 -8
-6 -3 -10 6 -12 4 -6 -10 5 -15 4 -16 -9 -5 -13 11 -13 15 -3 21 17 11 16 11
24 -3z m-359 -90 c-3 -8 -6 -5 -6 6 -1 11 2 17 5 13 3 -3 4 -12 1 -19z m-10
-65 c-3 -10 -5 -2 -5 17 0 19 2 27 5 18 2 -10 2 -26 0 -35z m-376 -70 c-10
-17 -10 -16 -11 2 0 17 -2 17 -10 5 -7 -11 -10 -6 -9 20 0 19 3 29 6 23 9 -24
23 -13 25 20 1 26 2 24 5 -10 2 -24 0 -51 -6 -60z m326 65 c-3 -8 -6 -5 -6 6
-1 11 2 17 5 13 3 -3 4 -12 1 -19z m-237 -8 c-8 -5 -19 -10 -25 -10 -5 0 -3 5
5 10 8 5 20 10 25 10 6 0 3 -5 -5 -10z m-150 -21 c0 -12 -6 -16 -20 -12 -29 8
-26 30 5 30 8 0 15 -8 15 -18z m87 -1 c-3 -8 -6 -5 -6 6 -1 11 2 17 5 13 3 -3
4 -12 1 -19z m20 0 c-3 -8 -6 -5 -6 6 -1 11 2 17 5 13 3 -3 4 -12 1 -19z m-9
-46 c2 -7 -2 -10 -12 -6 -9 3 -16 11 -16 16 0 13 23 5 28 -10z m-425 -77 c4
-8 2 -17 -3 -20 -6 -4 -10 3 -10 14 0 25 6 27 13 6z m24 -7 c-3 -8 -6 -5 -6 6
-1 11 2 17 5 13 3 -3 4 -12 1 -19z m-189 -33 c1 -1 -5 -8 -15 -16 -13 -11 -15
-11 -9 -1 5 8 1 19 -10 28 -17 14 -17 14 6 3 14 -6 26 -13 28 -14z m116 -75
c16 -34 8 -41 -12 -9 -8 12 -19 18 -27 15 -16 -6 -16 15 0 26 13 9 21 2 39
-32z m-346 21 c11 -7 10 -9 -3 -14 -9 -4 -14 -3 -10 2 3 5 -1 12 -7 14 -7 3
-8 6 -3 6 6 0 16 -3 23 -8z m512 -32 c0 -17 -4 -28 -10 -24 -5 3 -10 17 -10
31 0 13 5 24 10 24 6 0 10 -14 10 -31z m-245 11 c3 -6 -1 -7 -9 -4 -18 7 -21
14 -7 14 6 0 13 -4 16 -10z m-220 -38 c-3 -3 -11 0 -18 7 -9 10 -8 11 6 5 10
-3 15 -9 12 -12z m482 -14 c-3 -7 -5 -2 -5 12 0 14 2 19 5 13 2 -7 2 -19 0
-25z m-148 -50 c-5 -10 -12 -18 -15 -18 -2 0 0 10 7 22 9 17 9 20 -2 16 -9 -4
-14 3 -15 18 l-2 24 18 -23 c13 -16 15 -27 9 -39z m128 10 c-3 -7 -5 -2 -5 12
0 14 2 19 5 13 2 -7 2 -19 0 -25z m33 -23 c0 -19 -2 -35 -4 -35 -2 0 -6 16 -8
35 -2 19 0 35 4 35 4 0 8 -16 8 -35z m-659 -50 c-17 -25 -31 -50 -31 -56 0 -5
-4 -9 -9 -9 -16 0 -21 -31 -10 -52 9 -17 9 -20 -3 -15 -11 4 -14 -1 -10 -19 6
-32 -25 -33 -34 0 -8 33 17 83 70 141 25 28 46 54 46 59 0 5 3 7 6 3 3 -3 -8
-27 -25 -52z m474 35 c3 -6 -1 -7 -9 -4 -18 7 -21 14 -7 14 6 0 13 -4 16 -10z
m219 -35 c3 -8 1 -15 -4 -15 -6 0 -10 7 -10 15 0 8 2 15 4 15 2 0 6 -7 10 -15z
m1691 -364 c-3 -6 -11 -11 -16 -11 -5 0 -4 6 3 14 14 16 24 13 13 -3z m30 -80
c-3 -6 -11 -11 -16 -11 -5 0 -4 6 3 14 14 16 24 13 13 -3z m-515 -24 c0 -2
-10 -12 -22 -23 l-23 -19 19 23 c18 21 26 27 26 19z m13 -92 c-3 -9 -8 -14
-10 -11 -3 3 -2 9 2 15 9 16 15 13 8 -4z m70 0 c-3 -9 -8 -14 -10 -11 -3 3 -2
9 2 15 9 16 15 13 8 -4z m477 -60 c-7 -8 -17 -15 -23 -15 -6 0 -2 7 9 15 25
19 30 19 14 0z m-430 -28 c0 -2 -9 -14 -20 -27 -11 -13 -20 -19 -20 -15 0 5 7
17 17 27 15 17 23 22 23 15z m370 -1 c0 -2 -8 -10 -17 -17 -16 -13 -17 -12 -4
4 13 16 21 21 21 13z m-379 -49 c-13 -12 -20 -15 -15 -7 12 22 28 39 33 34 3
-3 -6 -15 -18 -27z m-53 9 c-7 -8 -15 -12 -17 -11 -5 6 10 25 20 25 5 0 4 -6
-3 -14z m522 -10 c0 -2 -8 -10 -17 -17 -16 -13 -17 -12 -4 4 13 16 21 21 21
13z m-412 -46 c-7 -10 -14 -18 -15 -16 -6 6 9 36 18 36 5 0 4 -9 -3 -20z m393
-13 c-10 -9 -11 -8 -5 6 3 10 9 15 12 12 3 -3 0 -11 -7 -18z m-360 -63 c-11
-15 -21 -24 -21 -20 0 10 34 55 39 51 2 -2 -6 -16 -18 -31z m49 22 c0 -2 -8
-10 -17 -17 -16 -13 -17 -12 -4 4 13 16 21 21 21 13z m-127 -31 c-3 -9 -8 -14
-10 -11 -3 3 -2 9 2 15 9 16 15 13 8 -4z m481 -40 c-4 -8 -11 -15 -16 -15 -6
0 -5 6 2 15 7 8 14 15 16 15 2 0 1 -7 -2 -15z m-444 -70 c-7 -9 -15 -13 -17
-11 -6 6 20 36 26 30 2 -2 -2 -10 -9 -19z m131 -42 c-12 -20 -14 -14 -5 12 4
9 9 14 11 11 3 -2 0 -13 -6 -23z m-121 13 c0 -3 -4 -8 -10 -11 -5 -3 -10 -1
-10 4 0 6 5 11 10 11 6 0 10 -2 10 -4z m76 -24 c-17 -16 -18 -16 -5 5 7 12 15
20 18 17 3 -2 -3 -12 -13 -22z"/>
<path d="M4111 2254 c0 -11 3 -14 6 -6 3 7 2 16 -1 19 -3 4 -6 -2 -5 -13z"/>
<path d="M4145 2170 c24 -68 35 -196 24 -280 -16 -116 -22 -290 -11 -290 5 0
8 14 6 30 -4 34 -2 36 20 14 15 -14 16 -12 16 18 0 26 -3 30 -11 18 -7 -11 -9
-3 -5 30 3 25 3 36 0 25 -10 -34 -26 -43 -18 -10 4 17 11 33 16 36 24 16 135
-14 140 -37 2 -11 6 -10 15 5 10 17 10 19 -1 15 -7 -3 -20 2 -29 10 -8 8 -17
12 -21 9 -10 -10 -7 17 5 40 9 19 8 19 -11 -3 l-21 -25 6 25 c6 23 5 23 -14
-5 -25 -35 -28 -17 -5 27 9 16 11 28 6 24 -5 -3 -15 -19 -22 -36 -14 -34 -25
-38 -39 -12 -6 9 -11 11 -11 5 0 -7 -4 -13 -10 -13 -5 0 -2 19 6 43 16 44 19
126 9 205 -9 63 -36 161 -46 168 -5 2 -2 -14 6 -36z"/>
<path d="M6084 2110 c3 -17 2 -29 -2 -26 -4 2 -7 -16 -7 -40 0 -41 2 -44 28
-44 15 0 27 5 27 10 0 6 6 10 13 10 22 0 58 45 51 64 -7 19 -74 56 -100 56
-13 0 -15 -6 -10 -30z"/>
<path d="M5540 2087 c-26 -22 -40 -55 -49 -123 -6 -36 -11 -67 -13 -69 -12
-10 -70 -35 -83 -35 -8 0 -15 -4 -15 -10 0 -5 -16 -10 -35 -10 -41 0 -90 -22
-98 -45 -6 -14 -1 -85 8 -112 2 -7 -3 -19 -11 -27 -13 -13 -12 -16 5 -26 11
-5 27 -10 35 -10 9 0 16 -4 16 -9 0 -5 15 -13 33 -16 58 -13 150 -47 246 -91
51 -24 98 -44 104 -44 5 0 15 -7 22 -16 6 -9 27 -17 46 -18 26 -1 37 -8 47
-29 17 -35 70 -75 111 -83 18 -4 45 -20 61 -35 16 -16 33 -29 39 -29 6 0 11
-3 11 -8 0 -4 17 -16 38 -27 56 -29 110 -73 117 -96 7 -21 -18 -59 -39 -59 -6
0 -21 -7 -33 -15 l-22 -16 25 -67 c14 -37 36 -94 48 -127 27 -73 43 -104 66
-130 10 -11 25 -40 33 -65 l15 -45 66 -3 67 -3 -4 138 c-4 135 -16 219 -33
232 -9 6 -29 36 -40 59 -10 21 18 95 48 125 21 21 28 38 28 66 0 42 -11 55
-78 91 -23 13 -49 34 -57 47 -9 13 -21 20 -30 17 -8 -4 -15 -2 -15 3 0 16 -49
33 -95 33 -24 0 -46 4 -50 9 -3 6 -52 9 -109 8 -72 -1 -109 3 -120 12 -8 7
-19 10 -24 7 -12 -7 -84 30 -99 51 -18 23 -16 68 2 83 8 7 15 19 15 26 0 7 12
21 28 31 45 28 53 42 37 67 -7 11 -14 37 -14 56 0 19 -5 51 -10 70 -6 19 -11
51 -11 71 0 19 -7 44 -15 55 -8 10 -15 26 -15 34 0 13 -164 121 -181 120 -2 0
-11 -6 -19 -13z"/>
<path d="M4246 2045 c-9 -26 -7 -32 5 -12 6 10 9 21 6 23 -2 3 -7 -2 -11 -11z"/>
<path d="M4488 2029 c-25 -14 -22 -28 10 -42 15 -6 30 -16 35 -22 4 -6 11 -5
17 5 14 21 13 27 -10 50 -23 23 -28 24 -52 9z"/>
<path d="M4321 1973 c-10 -26 -10 -27 4 -9 8 11 15 23 15 28 0 15 -7 8 -19
-19z"/>
<path d="M1710 1949 c-30 -5 -164 -11 -297 -14 -236 -4 -293 -9 -293 -25 0
-11 -115 -30 -181 -30 -37 0 -65 7 -88 21 -19 11 -44 18 -55 16 -12 -3 -56
-15 -99 -26 -45 -12 -129 -23 -198 -27 l-119 -6 -35 37 c-31 34 -35 36 -41 19
-24 -74 -24 -74 -73 -74 -26 0 -53 -6 -60 -12 -7 -8 -41 -13 -92 -13 l-79 0 0
-289 0 -288 22 6 c13 3 123 6 245 6 123 0 222 3 221 8 -6 21 26 77 69 118 60
59 113 83 180 84 44 0 61 6 100 34 27 18 82 45 123 60 41 15 89 33 105 40 40
17 213 70 295 91 36 8 108 31 160 49 52 18 125 40 161 49 67 16 115 41 175 91
48 40 44 65 -12 72 -12 1 -35 4 -51 7 -15 3 -53 1 -83 -4z"/>
<path d="M4256 1943 c-5 -12 -9 -14 -15 -5 -4 6 -7 -4 -7 -24 l0 -35 19 36
c10 20 16 39 14 41 -3 3 -8 -3 -11 -13z"/>
<path d="M4825 1954 c-11 -3 -24 -11 -30 -18 -5 -7 -23 -19 -40 -27 -71 -34
-26 -87 125 -146 58 -23 129 -48 157 -57 47 -13 54 -13 68 0 9 9 15 33 15 58
0 34 -7 52 -35 87 -19 24 -35 49 -35 54 -1 32 -160 66 -225 49z"/>
<path d="M4211 1934 c0 -11 3 -14 6 -6 3 7 2 16 -1 19 -3 4 -6 -2 -5 -13z"/>
<path d="M4265 1913 c-10 -21 -19 -41 -21 -45 -5 -8 17 -5 34 5 6 5 12 13 12
18 0 6 -4 7 -10 4 -13 -8 -13 1 1 27 6 11 9 22 6 24 -2 3 -12 -12 -22 -33z"/>
<path d="M4296 1923 c-6 -14 -5 -15 5 -6 7 7 10 15 7 18 -3 3 -9 -2 -12 -12z"/>
<path d="M4326 1923 c-6 -14 -5 -15 5 -6 7 7 10 15 7 18 -3 3 -9 -2 -12 -12z"/>
<path d="M4345 1860 c-9 -16 -13 -30 -11 -30 3 0 12 14 21 30 9 17 13 30 11
30 -3 0 -12 -13 -21 -30z"/>
<path d="M4211 1831 c-7 -5 -12 -14 -10 -20 2 -6 10 -2 17 9 14 22 13 23 -7
11z"/>
<path d="M1870 1810 c0 -5 5 -10 10 -10 6 0 10 5 10 10 0 6 -4 10 -10 10 -5 0
-10 -4 -10 -10z"/>
<path d="M4310 1800 c-6 -11 -8 -20 -6 -20 3 0 10 9 16 20 6 11 8 20 6 20 -3
0 -10 -9 -16 -20z"/>
<path d="M1831 1774 c-7 -8 -10 -18 -7 -21 3 -3 1 -12 -5 -20 -9 -10 -6 -13
14 -13 17 0 26 7 30 22 9 31 -1 36 -13 7 -9 -21 -9 -20 -4 9 6 36 5 38 -15 16z"/>
<path d="M1882 1758 c-19 -19 -14 -37 8 -31 20 5 27 27 12 37 -5 3 -14 0 -20
-6z"/>
<path d="M4596 1740 c4 -19 11 -39 16 -45 6 -6 7 1 2 20 -10 46 -25 66 -18 25z"/>
<path d="M1782 1753 c-6 -2 -10 -9 -6 -14 8 -14 21 -11 28 6 6 15 1 17 -22 8z"/>
<path d="M2924 1748 c-7 -6 -25 -23 -41 -38 -32 -30 -58 -101 -68 -187 -6 -45
-4 -53 10 -53 31 0 57 22 77 66 10 25 28 50 39 57 10 6 19 21 19 31 0 16 -3
17 -12 8 -7 -7 -20 -12 -30 -12 -10 0 -23 -10 -28 -22 -6 -16 -9 -18 -9 -6 -1
18 29 81 42 86 4 2 5 8 1 13 -3 5 2 9 10 9 8 0 20 8 25 18 6 9 11 11 11 5 0
-7 6 -13 12 -13 7 0 1 11 -14 25 -31 28 -29 28 -44 13z"/>
<path d="M4221 1723 c0 -25 1 -26 9 -8 12 27 12 35 0 35 -5 0 -10 -12 -9 -27z"/>
<path d="M4688 1695 c8 -30 17 -53 19 -51 6 5 -18 96 -27 101 -4 2 0 -20 8
-50z"/>
<path d="M4202 1720 c0 -14 2 -19 5 -12 2 6 2 18 0 25 -3 6 -5 1 -5 -13z"/>
<path d="M4700 1739 c0 -4 7 -25 15 -48 8 -23 14 -44 14 -47 0 -3 3 -9 7 -12
4 -4 4 -1 0 6 -11 18 5 15 19 -5 10 -13 13 -14 20 -2 5 8 5 11 1 7 -9 -8 -46
27 -46 45 -1 12 -29 67 -30 56z"/>
<path d="M4350 1721 c0 -5 7 -12 16 -15 24 -9 27 -7 10 9 -17 17 -26 19 -26 6z"/>
<path d="M4731 1720 c0 -8 4 -24 9 -35 5 -13 9 -14 9 -5 0 8 -4 24 -9 35 -5
13 -9 14 -9 5z"/>
<path d="M4267 1691 c-4 -17 -3 -21 5 -13 5 5 8 16 6 23 -3 8 -7 3 -11 -10z"/>
<path d="M4291 1684 c0 -11 3 -14 6 -6 3 7 2 16 -1 19 -3 4 -6 -2 -5 -13z"/>
<path d="M4213 1657 c-1 -30 -1 -31 8 -8 5 14 6 28 2 32 -4 4 -9 -6 -10 -24z"/>
<path d="M1441 1664 c0 -11 3 -14 6 -6 3 7 2 16 -1 19 -3 4 -6 -2 -5 -13z"/>
<path d="M1461 1664 c0 -11 3 -14 6 -6 3 7 2 16 -1 19 -3 4 -6 -2 -5 -13z"/>
<path d="M4420 1673 c0 -5 10 -18 23 -29 l22 -19 -20 25 c-11 14 -21 27 -22
29 -2 2 -3 0 -3 -6z"/>
<path d="M4657 1651 c-3 -13 -10 -20 -17 -16 -6 3 -10 3 -9 -2 1 -4 1 -15 -1
-23 -1 -11 -4 -9 -10 5 -8 19 -9 19 -9 -2 -1 -13 -6 -23 -12 -23 -5 0 -7 -4
-4 -10 3 -5 -3 -10 -14 -10 -23 0 -32 -20 -17 -35 17 -16 72 -49 59 -35 -12
14 3 74 17 65 9 -6 34 78 28 96 -3 8 -7 3 -11 -10z"/>
<path d="M3897 1654 c-3 -3 -3 -12 0 -20 3 -9 -2 -14 -16 -14 -12 0 -21 -4
-21 -10 0 -5 16 -10 35 -10 26 0 33 -3 29 -15 -8 -20 4 -65 17 -65 6 0 9 8 8
18 -3 32 1 36 16 16 12 -16 12 -11 -2 31 -9 28 -20 56 -26 63 -10 13 -30 16
-40 6z"/>
<path d="M4254 1628 c-9 -39 -9 -39 -28 -103 -8 -27 -15 -41 -15 -30 -1 16 -3
17 -13 6 -13 -13 -10 -17 18 -24 4 -1 13 14 21 33 l13 35 -5 -40 c-6 -48 9
-19 18 35 3 19 3 29 0 23 -7 -18 -24 -16 -17 2 4 8 12 15 20 15 8 0 14 4 14
10 0 5 -7 7 -15 4 -12 -5 -13 -1 -4 26 6 17 9 33 6 36 -3 3 -9 -10 -13 -28z"/>
<path d="M4230 1632 c0 -12 -6 -22 -14 -22 -7 0 -16 -10 -19 -22 -6 -21 -5
-22 7 -5 10 13 15 15 18 5 3 -7 8 2 12 20 5 18 5 36 2 39 -3 4 -6 -3 -6 -15z"/>
<path d="M4281 1634 c0 -11 3 -14 6 -6 3 7 2 16 -1 19 -3 4 -6 -2 -5 -13z"/>
<path d="M4302 1620 c0 -14 2 -19 5 -12 2 6 2 18 0 25 -3 6 -5 1 -5 -13z"/>
<path d="M3800 1599 c0 -5 5 -7 10 -4 6 3 10 8 10 11 0 2 -4 4 -10 4 -5 0 -10
-5 -10 -11z"/>
<path d="M4345 1599 c-4 -6 -5 -12 -2 -15 2 -3 7 2 10 11 7 17 1 20 -8 4z"/>
<path d="M5006 1597 c3 -10 9 -15 12 -12 3 3 0 11 -7 18 -10 9 -11 8 -5 -6z"/>
<path d="M4302 1576 c7 -8 15 -12 17 -11 5 6 -10 25 -20 25 -5 0 -4 -6 3 -14z"/>
<path d="M4361 1574 c0 -11 3 -14 6 -6 3 7 2 16 -1 19 -3 4 -6 -2 -5 -13z"/>
<path d="M4144 1513 c-3 -35 -4 -67 0 -70 3 -4 6 12 6 35 0 23 4 42 9 42 5 0
7 10 3 22 -3 14 -2 19 6 14 7 -4 12 -1 12 7 0 7 -6 14 -14 14 -11 0 -17 -18
-22 -64z"/>
<path d="M4282 1550 c-6 -10 -8 -21 -3 -24 5 -3 11 4 14 16 8 29 4 32 -11 8z"/>
<path d="M4206 1535 c-3 -8 -1 -15 4 -15 6 0 10 7 10 15 0 8 -2 15 -4 15 -2 0
-6 -7 -10 -15z"/>
<path d="M4303 1535 c-3 -9 -3 -18 -1 -21 3 -3 8 4 11 16 6 23 -1 27 -10 5z"/>
<path d="M4325 1519 c-4 -6 -4 -13 -1 -16 3 -4 6 -1 6 5 0 6 8 13 18 15 15 4
15 5 0 6 -9 0 -20 -4 -23 -10z"/>
<path d="M981 1483 c-1 -32 3 -43 14 -43 10 0 15 -10 15 -32 0 -19 4 -28 8
-21 4 6 6 32 4 57 -3 32 -8 43 -17 40 -8 -4 -15 4 -18 18 -2 13 -5 5 -6 -19z"/>
<path d="M4167 1486 c-3 -8 0 -17 7 -19 10 -4 12 1 9 14 -6 23 -9 24 -16 5z"/>
<path d="M4291 1484 c0 -11 3 -14 6 -6 3 7 2 16 -1 19 -3 4 -6 -2 -5 -13z"/>
<path d="M4427 1493 c-4 -3 -7 -11 -7 -17 0 -6 5 -5 12 2 6 6 9 14 7 17 -3 3
-9 2 -12 -2z"/>
<path d="M4313 1475 c-3 -9 -3 -18 -1 -21 3 -3 8 4 11 16 6 23 -1 27 -10 5z"/>
<path d="M4821 1474 c0 -11 3 -14 6 -6 3 7 2 16 -1 19 -3 4 -6 -2 -5 -13z"/>
<path d="M4256 1449 c-8 -42 0 -50 9 -9 4 17 5 34 2 36 -2 3 -7 -10 -11 -27z"/>
<path d="M4911 1464 c0 -11 3 -14 6 -6 3 7 2 16 -1 19 -3 4 -6 -2 -5 -13z"/>
<path d="M4400 1460 c0 -5 5 -10 11 -10 5 0 7 5 4 10 -3 6 -8 10 -11 10 -2 0
-4 -4 -4 -10z"/>
<path d="M4206 1445 c-3 -9 -6 -22 -5 -28 0 -7 5 -1 10 12 5 13 8 26 5 28 -2
2 -6 -3 -10 -12z"/>
<path d="M4496 1445 c4 -8 13 -15 21 -15 12 0 12 2 -1 15 -8 8 -17 15 -20 15
-3 0 -3 -7 0 -15z"/>
<path d="M4741 1444 c0 -11 3 -14 6 -6 3 7 2 16 -1 19 -3 4 -6 -2 -5 -13z"/>
<path d="M4831 1434 c0 -11 3 -14 6 -6 3 7 2 16 -1 19 -3 4 -6 -2 -5 -13z"/>
<path d="M4897 1429 c4 -13 8 -18 11 -10 2 7 -1 18 -6 23 -8 8 -9 4 -5 -13z"/>
<path d="M4602 1420 c0 -14 2 -19 5 -12 2 6 2 18 0 25 -3 6 -5 1 -5 -13z"/>
<path d="M4220 1415 c0 -8 2 -15 4 -15 2 0 6 7 10 15 3 8 1 15 -4 15 -6 0 -10
-7 -10 -15z"/>
<path d="M4260 1379 c-7 -24 -21 -61 -31 -81 -16 -32 -17 -38 -4 -45 8 -5 11
-13 6 -21 -11 -18 -64 6 -57 25 3 7 1 13 -4 13 -5 0 -7 7 -4 15 6 14 8 13 20
-2 12 -16 15 -16 24 -3 15 23 12 38 -10 45 -11 4 -17 11 -14 17 10 15 -18 29
-33 16 -10 -8 -12 -7 -7 5 3 9 2 23 -4 32 -6 12 -11 -11 -15 -77 -10 -136 -24
-172 -44 -111 -8 22 -9 16 -9 -32 1 -33 -2 -78 -7 -100 l-7 -40 14 30 c14 29
14 28 11 -30 -5 -69 -32 -308 -40 -345 -3 -14 -8 -43 -11 -65 -3 -22 -9 -52
-14 -66 -5 -18 -4 -31 3 -39 9 -10 9 -11 0 -6 -7 4 -12 0 -11 -11 0 -10 -2
-29 -5 -43 -13 -63 -46 -240 -52 -283 -4 -29 -10 -45 -17 -41 -5 4 -4 -4 3
-17 12 -23 11 -23 -6 -9 -17 14 -18 14 -6 -9 8 -14 9 -21 2 -17 -7 5 -11 -2
-10 -16 0 -13 -2 -33 -6 -45 l-7 -22 263 0 c165 1 269 5 277 11 8 7 12 7 12 0
0 -7 118 -11 361 -11 289 -1 359 1 353 11 -6 10 -5 11 7 1 22 -18 197 -16 215
2 7 7 10 16 6 19 -3 4 1 4 11 0 14 -5 15 -9 6 -20 -9 -12 -8 -14 9 -11 12 2
25 6 28 10 10 10 26 9 20 -1 -7 -12 26 -11 42 1 8 6 12 6 12 -2 0 -9 39 -11
140 -10 87 0 140 5 140 11 0 6 11 8 25 6 22 -5 23 -3 13 16 -6 12 -7 18 -3 14
4 -4 14 -1 22 7 20 20 34 19 26 -2 -6 -15 -5 -16 9 -3 9 8 14 19 11 24 -3 5 2
4 12 -2 19 -10 45 5 45 27 0 6 5 11 11 11 5 0 7 -6 3 -12 -5 -9 -2 -8 10 1 9
8 15 20 12 27 -7 19 11 27 31 14 15 -9 14 -10 -7 -4 -20 5 -23 4 -13 -6 13
-14 48 -5 38 10 -3 5 -2 10 2 10 5 0 18 7 29 15 18 13 18 14 -6 9 -20 -5 -22
-4 -10 6 13 10 13 11 0 7 -8 -2 -15 -10 -15 -17 0 -7 -6 -15 -14 -18 -9 -3
-11 0 -6 8 6 9 1 10 -16 5 -13 -4 -28 -11 -33 -16 -6 -5 -14 -9 -20 -9 -5 0
-1 7 10 16 16 13 16 15 2 10 -28 -9 -21 2 13 19 17 9 29 19 26 22 -3 2 -16 -1
-29 -8 -50 -26 -4 7 60 43 71 40 79 52 12 18 -53 -27 -51 -18 3 15 29 18 34
25 17 20 -23 -5 -23 -5 -5 6 19 12 19 12 0 21 -16 7 -15 7 5 4 14 -3 32 0 40
5 12 9 11 10 -5 4 -11 -3 -16 -3 -13 1 4 4 2 16 -4 27 -8 16 -8 19 5 14 9 -3
21 1 27 9 10 11 10 14 1 14 -7 0 -9 5 -5 12 5 8 2 9 -10 5 -10 -4 -21 -7 -24
-7 -4 0 -1 -4 7 -9 9 -6 -2 -16 -42 -35 -101 -47 -107 -49 -108 -23 -1 17 -2
18 -6 4 -3 -10 1 -25 9 -34 9 -12 9 -15 1 -9 -7 4 -13 3 -13 -2 0 -11 -50 -35
-58 -27 -3 3 -1 5 4 5 6 0 18 6 28 13 16 12 16 14 2 14 -9 0 -16 -4 -16 -8 0
-12 -39 -17 -44 -5 -2 6 -5 4 -5 -5 -1 -21 -22 -29 -53 -22 -17 3 -19 2 -9 -5
8 -6 11 -17 7 -28 -6 -16 -8 -16 -16 -4 -8 12 -10 11 -11 -5 l0 -20 -9 20 c-8
19 -9 19 -9 -2 -1 -13 4 -23 11 -23 6 0 9 -2 6 -5 -8 -9 -38 6 -33 16 3 4 -11
18 -32 29 -22 12 -28 18 -14 14 16 -4 21 -3 17 5 -5 7 -1 8 9 4 13 -5 14 -7 3
-14 -10 -7 -8 -9 6 -9 13 0 17 5 13 19 -3 14 0 17 14 14 14 -4 19 0 19 13 0
14 2 16 9 6 7 -11 9 -10 15 3 3 9 10 13 16 10 6 -3 10 4 11 17 0 22 1 22 9 3
8 -18 9 -18 9 5 1 20 3 22 11 10 7 -11 10 -12 10 -2 0 17 26 43 34 35 3 -4 6
2 6 13 0 12 3 15 8 7 5 -8 12 -9 22 -2 13 8 12 11 -3 23 -12 9 -14 16 -7 21 5
3 8 10 5 15 -3 5 8 16 25 25 17 9 28 20 25 25 -4 6 10 19 29 31 33 19 52 38
24 24 -7 -4 2 6 20 22 31 27 44 52 20 37 -10 -6 -10 -5 -1 8 13 15 8 28 -9 28
-5 0 -6 -4 -3 -10 3 -5 -5 -15 -19 -22 -14 -6 -26 -15 -26 -20 0 -4 -7 -8 -16
-8 -9 0 -32 -10 -52 -22 -21 -13 -33 -16 -30 -8 2 7 22 20 43 29 56 23 88 42
81 48 -3 4 -14 -1 -23 -9 -10 -8 -34 -21 -53 -29 -19 -7 -55 -23 -80 -35 -42
-20 -72 -24 -41 -5 16 10 -56 7 -81 -4 -13 -5 -17 -2 -15 14 1 15 14 26 43 37
34 13 40 19 31 29 -9 9 -18 10 -35 2 -14 -7 -18 -13 -11 -17 7 -5 6 -9 -4 -13
-10 -4 -14 0 -13 11 2 9 8 18 14 20 7 2 10 8 7 13 -4 5 2 6 11 2 12 -4 15 -3
10 5 -5 8 -1 10 10 5 11 -4 15 -3 11 4 -5 7 0 9 12 6 10 -3 22 1 27 8 5 9 2
10 -10 6 -10 -4 -15 -3 -11 3 3 6 -1 10 -9 10 -20 0 -29 17 -15 26 8 5 9 3 4
-6 -6 -9 -2 -10 15 -5 15 5 20 4 16 -4 -10 -15 4 -13 34 5 23 14 23 14 3 9
-32 -9 -29 -1 10 25 17 12 23 19 12 16 -17 -5 -16 -3 5 14 21 17 22 19 5 14
-20 -6 -20 -5 -1 10 24 19 40 21 30 4 -4 -8 -3 -10 2 -5 5 5 9 12 9 15 0 4 4
13 9 21 7 10 3 10 -15 -2 -30 -22 -45 -22 -28 -1 11 13 3 12 -30 -5 -23 -12
-45 -20 -48 -17 -3 2 21 18 53 35 33 16 55 30 51 31 -4 0 -26 -9 -48 -21 -23
-11 -43 -18 -46 -15 -3 2 9 12 26 21 17 8 31 18 31 21 0 3 -18 -5 -40 -17 -22
-12 -43 -20 -46 -16 -3 3 17 17 45 31 28 15 51 29 51 31 0 3 -27 -9 -61 -26
-34 -16 -62 -29 -64 -27 -1 2 -6 14 -9 28 l-7 25 14 -23 c16 -27 31 -18 16 10
-6 10 -8 24 -6 31 3 7 8 0 12 -15 8 -30 19 -36 31 -16 4 6 3 8 -3 5 -12 -7
-27 33 -28 72 0 13 -6 26 -13 28 -7 3 -10 -1 -6 -11 4 -10 0 -18 -11 -22 -9
-4 -12 -10 -7 -13 15 -9 -17 -81 -37 -82 -10 0 -11 -2 -3 -6 20 -8 14 -23 -10
-24 -22 0 -22 -1 -3 -9 19 -8 19 -8 -5 -18 -22 -9 -22 -11 -5 -12 l20 -1 -20
-9 c-12 -5 -15 -9 -5 -9 11 -1 11 -4 2 -13 -10 -10 -15 -10 -20 -1 -9 14 -27
5 -34 -17 -3 -9 -9 -2 -16 20 l-10 35 -2 -30 c-2 -30 -2 -30 -11 -5 -7 20 -8
16 -5 -17 2 -24 0 -43 -5 -43 -5 0 -9 7 -9 15 0 8 -6 15 -12 15 -9 0 -8 4 2
10 13 8 12 10 -2 10 -11 0 -18 8 -18 21 0 11 5 17 10 14 15 -9 12 4 -5 21 -14
15 -18 32 -17 79 1 17 0 17 -4 3 -3 -10 -10 -18 -15 -18 -5 0 -9 -12 -8 -27
l1 -28 9 25 8 25 -2 -24 c-3 -31 -27 -41 -27 -11 0 12 -4 18 -10 15 -5 -3 -20
-1 -32 6 -13 6 -20 8 -16 4 4 -5 2 -15 -5 -23 -8 -11 -8 -14 0 -9 6 4 13 4 16
0 2 -5 2 -2 1 5 -2 6 1 12 6 12 6 0 10 -10 11 -22 0 -22 1 -22 9 -3 5 11 9 16
10 10 1 -5 3 -18 5 -28 2 -11 -1 -17 -9 -14 -6 3 -20 -1 -31 -9 -29 -22 -40
-16 -14 7 l24 20 -25 -12 c-23 -11 -24 -11 -11 5 12 14 12 16 -3 10 -12 -5
-16 -14 -13 -31 4 -20 1 -23 -17 -18 -11 2 -15 2 -7 -1 11 -5 8 -10 -10 -21
-17 -10 -18 -13 -4 -8 11 4 27 9 35 12 9 3 7 -2 -5 -13 -17 -14 -17 -16 -2
-11 29 11 20 -28 -10 -43 -16 -8 -32 -16 -37 -19 -5 -2 -6 4 -3 13 5 13 3 17
-5 13 -7 -3 -30 -12 -50 -21 -38 -16 -38 -16 -38 6 0 19 2 20 10 8 8 -12 10
-10 10 8 0 15 -4 21 -12 16 -7 -4 -8 -3 -4 4 11 19 26 14 26 -8 0 -11 2 -20 5
-20 11 0 85 33 82 36 -2 3 -20 -3 -40 -11 -35 -15 -37 -14 -37 5 0 11 5 20 10
20 6 0 10 5 10 11 0 5 -4 7 -10 4 -5 -3 -10 -2 -10 4 0 6 -7 8 -15 5 -12 -5
-15 3 -16 32 -1 22 -1 42 0 47 0 4 -4 7 -10 7 -6 0 -9 -7 -5 -15 3 -8 -3 -19
-12 -25 -16 -11 -16 -11 1 -6 13 4 17 0 17 -17 0 -16 -3 -18 -9 -8 -5 7 -13
11 -19 7 -6 -3 -11 10 -14 34 -4 45 8 55 47 40 15 -6 34 -6 47 0 17 6 18 9 6
9 -9 1 -24 8 -32 17 -15 14 -16 14 -16 0 0 -9 -4 -16 -9 -16 -14 0 -7 30 10
42 11 8 11 9 -3 4 -12 -3 -18 2 -22 17 -2 12 -4 5 -2 -15 1 -21 -2 -38 -6 -38
-4 0 -9 9 -9 20 -1 11 -3 25 -4 30 -1 6 -3 19 -4 30 -1 14 -6 18 -18 13 -9 -4
-14 -2 -10 3 3 6 2 16 -4 24 -6 11 -9 7 -10 -15 -1 -20 -6 -8 -14 33 -15 78
-24 89 -19 25 3 -42 2 -44 -5 -13 -4 19 -11 46 -15 59 -7 19 -5 23 7 18 11 -4
14 -2 10 8 -3 8 -9 13 -13 10 -5 -3 -11 1 -14 7 -4 7 -4 -9 -2 -37 2 -27 2
-43 0 -35 -3 9 -13 21 -24 28 -17 10 -20 10 -20 -3 0 -8 7 -15 15 -15 8 0 15
-9 15 -20 0 -12 5 -17 14 -14 10 4 15 -5 18 -30 2 -19 0 -32 -5 -29 -4 2 -16
-1 -25 -8 -14 -11 -15 -11 -5 0 6 7 9 20 6 27 -4 11 -10 11 -34 -2 -16 -8 -29
-12 -29 -10 0 3 13 12 29 21 22 11 28 20 24 35 -3 11 -12 20 -19 20 -16 0 -19
36 -4 45 13 8 13 25 -1 25 -5 0 -7 -4 -4 -10 3 -5 2 -10 -4 -10 -5 0 -11 6
-14 13 -2 6 -3 4 -1 -6 2 -12 -2 -17 -11 -13 -9 3 -12 -2 -9 -18 3 -18 -4 -26
-32 -39 -19 -10 -33 -13 -29 -7 3 5 1 10 -4 10 -6 0 -11 8 -11 17 0 15 1 15
13 -1 11 -16 17 -17 33 -7 18 11 17 12 -3 6 -18 -5 -23 -2 -23 12 0 10 4 14 8
8 11 -15 41 -15 35 1 -2 7 -11 10 -19 7 -8 -3 -14 -2 -13 3 4 24 -2 64 -10 64
-6 0 -6 -12 -1 -30 7 -24 5 -32 -10 -40 -13 -7 -20 -6 -24 3 -3 6 -3 2 0 -10
16 -65 13 -84 -7 -40 -8 18 -9 16 -4 -13 l5 -35 -16 25 c-9 14 -13 17 -10 7 3
-10 6 -23 6 -28 0 -5 7 -9 15 -9 31 0 13 -27 -35 -53 -48 -26 -50 -26 -50 -7
0 19 -9 24 -36 21 -7 -1 -14 5 -18 14 -3 8 -11 15 -18 15 -10 0 -10 -2 1 -9
13 -9 8 -56 -10 -91 -9 -18 -30 -98 -32 -122 -1 -10 -5 -18 -9 -18 -4 0 -8 -4
-8 -10 0 -5 7 -7 15 -4 10 4 15 0 15 -12 0 -13 -3 -15 -8 -7 -5 8 -13 9 -22 3
-10 -7 -11 -10 -2 -10 6 0 12 -8 11 -17 0 -11 -3 -13 -6 -5 -2 6 -8 12 -12 12
-8 0 -11 -12 -14 -59 -1 -16 -5 -27 -8 -25 -4 2 -9 -5 -12 -16 -3 -10 0 -22 7
-25 6 -3 2 -4 -9 -2 -18 3 -20 -2 -20 -44 1 -26 -3 -45 -7 -43 -4 3 -8 -4 -8
-15 0 -11 -4 -23 -10 -26 -12 -8 -13 6 -1 37 15 41 22 78 14 76 -5 -2 -9 0
-11 5 -6 18 -1 27 16 28 9 1 4 5 -13 9 -16 4 -22 8 -13 9 10 0 21 13 25 29 l7
27 6 -30 6 -30 5 32 c3 19 2 30 -4 26 -6 -4 -8 5 -5 20 3 15 2 24 -2 22 -4 -3
-10 -18 -13 -35 -4 -16 -12 -30 -18 -30 -7 0 -8 7 -4 18 4 9 11 32 17 50 5 17
13 32 19 32 6 0 7 -4 4 -10 -3 -5 -2 -10 2 -10 5 0 14 18 20 40 12 47 9 50
-11 13 -12 -23 -15 -24 -16 -9 0 24 -9 16 -15 -12 -2 -12 -9 -30 -14 -39 -10
-15 -11 -14 -7 7 2 14 7 32 11 41 4 10 0 19 -9 22 -13 5 -31 -22 -28 -43 0 -3
-4 -13 -9 -22 -6 -10 -5 -19 1 -23 5 -3 10 -12 10 -18 -1 -7 -10 -1 -22 13
l-21 25 8 -24 c4 -15 3 -21 -3 -17 -5 3 -13 -1 -16 -9 -5 -13 -2 -14 15 -4 15
7 24 8 32 0 7 -7 4 -10 -9 -9 -10 0 -28 -3 -38 -7 -16 -7 -18 -5 -13 9 4 10 1
24 -8 32 -8 9 -15 11 -15 5 0 -5 4 -12 10 -16 5 -3 7 -12 4 -19 -3 -7 2 -19
11 -26 11 -9 15 -9 15 -1 0 7 5 9 10 6 6 -3 10 -1 10 5 0 6 4 9 10 5 13 -8 1
-35 -14 -29 -9 3 -16 -7 -20 -27 -3 -18 -9 -29 -13 -25 -4 4 -13 -4 -20 -16
l-13 -23 4 25 c3 14 5 29 5 33 1 5 6 5 11 2 21 -13 23 26 2 41 -12 8 -19 20
-16 28 3 7 -2 19 -11 26 -12 10 -15 10 -15 0 0 -8 -2 -11 -5 -8 -8 8 6 39 14
33 4 -2 8 2 8 9 0 7 -6 13 -13 13 -7 0 -11 -4 -8 -9 4 -5 -2 -8 -11 -6 -10 2
-19 -3 -21 -10 -1 -7 0 -8 3 -2 11 22 22 -2 11 -25 -6 -13 -15 -22 -20 -19 -4
3 -5 10 -2 16 5 7 2 8 -6 3 -9 -5 -11 -1 -6 16 3 13 3 18 0 12 -8 -18 -25 -16
-18 2 4 8 12 15 20 15 8 0 14 7 14 16 0 8 4 13 9 9 6 -3 15 3 20 14 16 30 12
40 -4 11 l-14 -25 -2 25 c-1 22 -2 22 -10 -7 -5 -18 -14 -33 -20 -33 -5 0 -15
-11 -21 -25 -6 -14 -15 -25 -19 -25 -14 0 11 53 31 67 20 14 27 43 11 43 -5 0
-7 9 -4 20 3 11 8 18 12 16 3 -2 6 8 7 22 0 15 4 36 8 47 4 11 -1 7 -11 -10
-18 -30 -61 -50 -50 -23 21 51 21 52 4 45 -10 -4 -20 0 -26 11 -10 16 -10 16
-11 -1 0 -10 -5 -15 -10 -12 -6 4 -8 11 -4 16 3 5 1 15 -5 22 -6 8 -6 18 -1
27 6 8 10 20 9 25 0 6 -7 -3 -16 -20 -11 -20 -12 -30 -4 -33 6 -2 11 -8 11
-13 0 -6 -4 -8 -9 -4 -6 3 -15 -3 -20 -14 -17 -30 -12 -39 5 -11 14 23 14 23
9 3 -4 -14 -2 -23 4 -23 6 0 11 -4 11 -8 0 -12 -32 -11 -47 0 -14 11 -36 1
-28 -13 10 -15 -5 -10 -23 8 -16 16 -16 16 0 11 27 -11 33 24 8 44 -12 10 -17
18 -12 18 6 0 14 -4 17 -10 9 -14 25 -12 25 3 0 8 10 18 22 24 15 6 18 12 10
17 -7 4 -12 2 -12 -4 0 -7 -6 -5 -15 4 -9 8 -22 13 -31 9 -13 -5 -12 -8 3 -26
17 -20 16 -20 -11 1 -15 12 -33 19 -39 15 -5 -3 -7 -1 -3 5 3 6 -8 22 -26 37
-18 15 -26 24 -18 19 8 -4 22 -13 31 -21 19 -16 70 -28 68 -16 -3 18 2 33 10
33 5 0 7 -8 4 -19 -3 -11 2 -21 11 -24 9 -4 16 -2 16 3 0 6 -4 10 -10 10 -5 0
-10 4 -10 10 0 5 6 8 13 6 6 -1 9 -1 5 1 -16 9 -7 22 10 17 13 -5 14 -4 3 4
-11 8 -11 16 -2 42 16 47 13 50 -8 10 -11 -19 -17 -38 -14 -42 2 -5 -1 -8 -7
-8 -7 0 -10 7 -7 14 4 10 1 13 -9 9 -10 -4 -12 0 -8 11 3 9 10 13 15 10 5 -3
14 8 20 25 6 17 15 29 21 28 6 -1 13 5 15 13 4 13 3 13 -6 0 -13 -19 -14 0 -2
33 8 20 7 25 -4 23 -8 -1 -18 -6 -22 -11 -4 -4 -2 -5 5 -1 15 9 15 -2 1 -43
-6 -17 -15 -31 -21 -31 -5 0 -7 -4 -4 -8 2 -4 -4 -8 -14 -8 -11 0 -16 6 -13
14 3 7 8 10 11 8 7 -8 31 26 31 44 0 9 -6 5 -15 -10 l-15 -25 6 30 c4 25 3 27
-6 12 -20 -33 -30 -80 -18 -88 8 -5 8 -12 0 -28 -9 -16 -9 -20 1 -17 7 1 10 1
5 -1 -4 -3 -4 -10 -1 -15 5 -7 2 -8 -6 -3 -7 4 -15 3 -19 -2 -3 -6 -14 -2 -26
10 -20 20 -20 20 3 8 21 -11 28 -6 23 22 0 4 4 7 10 7 8 0 8 5 -1 15 -7 8 -10
25 -6 39 5 19 1 26 -14 31 -24 7 -24 12 -5 45 16 28 21 19 5 -10 -8 -15 -6
-21 10 -30 13 -7 20 -7 20 0 0 5 -5 10 -10 10 -12 0 -3 43 16 80 10 19 13 21
14 7 0 -10 -7 -31 -15 -47 -8 -16 -11 -31 -7 -34 4 -2 16 22 26 54 9 33 25 64
34 69 16 10 16 10 0 11 -9 0 -19 -8 -22 -18 -3 -10 -14 -18 -25 -18 -20 0 -20
3 14 99 10 26 15 51 12 54 -3 3 -11 -15 -17 -38z m-95 -46 c-2 -10 -8 -29 -14
-43 -9 -24 -10 -23 -10 12 -1 20 5 39 12 41 6 3 13 6 14 6 1 1 0 -7 -2 -16z
m39 -21 c2 -4 1 -14 -3 -21 -6 -9 -10 -7 -14 8 -5 20 7 29 17 13z m2 -218 c-3
-8 -1 -14 4 -14 6 0 10 -5 10 -11 0 -16 -25 -5 -25 12 0 8 -4 20 -8 26 -6 9
-3 11 8 7 9 -4 14 -13 11 -20z m-35 -21 c-12 -20 -14 -14 -5 12 4 9 9 14 11
11 3 -2 0 -13 -6 -23z m896 -5 c-3 -8 -6 -5 -6 6 -1 11 2 17 5 13 3 -3 4 -12
1 -19z m11 -33 c-2 -1 -14 -8 -28 -15 -22 -12 -24 -11 -13 2 7 8 10 17 7 21
-3 3 4 3 15 0 12 -3 20 -7 19 -8z m19 -7 c-3 -8 -6 -5 -6 6 -1 11 2 17 5 13 3
-3 4 -12 1 -19z m-87 -8 c-24 -19 -40 -25 -40 -15 0 5 51 34 60 34 3 0 -6 -8
-20 -19z m5 -20 c-9 -15 -45 -32 -45 -22 0 5 10 14 23 20 29 14 29 14 22 2z
m29 -32 c-3 -5 -23 -17 -44 -28 -21 -11 -42 -25 -45 -31 -4 -6 12 0 36 12 38
19 42 19 29 4 -14 -17 -13 -18 5 -12 16 6 15 3 -5 -13 -17 -13 -20 -20 -10
-20 8 -1 2 -8 -15 -17 -16 -9 -32 -19 -35 -22 -3 -3 -20 -14 -39 -24 -28 -15
-32 -15 -27 -2 3 8 1 15 -4 15 -6 0 -10 -9 -10 -20 0 -11 -2 -20 -4 -20 -2 0
-12 -3 -22 -7 -12 -4 -15 -3 -10 5 5 8 2 10 -9 5 -15 -5 -15 -3 -3 18 7 13 16
26 20 30 4 3 3 21 -2 39 -14 49 -10 73 4 27 6 -21 18 -42 26 -47 10 -7 11 -10
3 -10 -7 0 -13 -5 -13 -10 0 -6 32 6 71 26 39 19 69 38 66 40 -3 3 -19 -1 -35
-10 -28 -15 -30 -14 -35 4 -5 18 -8 19 -31 9 -14 -7 -24 -14 -22 -16 2 -3 14
0 25 7 18 9 21 8 21 -12 0 -14 -3 -19 -8 -11 -5 8 -13 9 -22 3 -22 -14 -30
-12 -30 8 0 11 17 26 46 40 25 12 42 17 38 11 -5 -9 -2 -10 10 -6 10 4 21 7
24 7 4 0 1 4 -6 9 -11 7 -10 9 3 14 9 4 13 3 10 -3 -3 -6 -1 -10 4 -10 6 0 11
6 11 13 0 21 22 39 31 25 4 -7 5 -16 3 -20z m133 0 c-3 -8 -6 -5 -6 6 -1 11 2
17 5 13 3 -3 4 -12 1 -19z m-1012 -28 c3 -6 -1 -7 -9 -4 -18 7 -21 14 -7 14 6
0 13 -4 16 -10z m1042 -37 c-3 -10 -5 -2 -5 17 0 19 2 27 5 18 2 -10 2 -26 0
-35z m-375 13 c3 -14 0 -30 -6 -37 -8 -9 -8 -10 1 -5 16 9 22 -15 9 -39 -15
-27 -26 -34 -43 -28 -9 4 -11 0 -7 -11 3 -9 11 -13 18 -9 7 5 7 2 -1 -8 -8 -9
-9 -20 -3 -29 13 -20 13 -43 0 -35 -5 3 -10 14 -10 25 0 10 -7 20 -15 24 -8 3
-15 11 -15 18 0 9 3 9 11 -2 8 -12 9 -9 5 13 -4 15 -2 27 4 27 5 0 10 8 10 17
0 15 2 14 15 -3 13 -17 14 -16 5 16 -13 44 -12 53 0 45 6 -3 10 4 10 17 0 18
-2 20 -10 8 -5 -8 -10 -10 -10 -4 0 12 10 24 21 24 3 0 9 -11 11 -24z m338 -7
c0 -5 -4 -9 -8 -9 -5 0 -9 7 -9 15 0 8 4 12 9 9 4 -3 8 -9 8 -15z m-963 -13
c-3 -7 0 -19 6 -26 9 -10 9 -11 -2 -5 -7 4 -16 3 -20 -2 -3 -6 -14 -2 -26 10
-20 20 -20 20 2 8 18 -9 23 -8 28 9 3 11 9 20 12 20 3 0 3 -6 0 -14z m43 4 c8
-5 11 -12 8 -16 -4 -3 -14 1 -23 10 -18 17 -9 21 15 6z m100 -20 c0 -5 -2 -10
-4 -10 -3 0 -8 5 -11 10 -3 6 -1 10 4 10 6 0 11 -4 11 -10z m23 -7 c-5 -12 -3
-14 7 -8 9 5 11 4 6 -4 -10 -15 13 -43 27 -34 6 4 8 -3 3 -20 -3 -14 -2 -28 4
-32 5 -3 7 -12 4 -20 -4 -8 -9 -13 -13 -11 -9 5 -31 -21 -24 -28 4 -3 1 -6 -6
-6 -7 0 -9 -5 -5 -12 5 -7 3 -8 -5 -4 -8 5 -14 0 -18 -13 -8 -31 -18 -25 -19
12 -1 17 1 26 3 20 3 -7 9 -13 14 -13 6 0 7 5 4 10 -3 6 -2 10 3 10 13 0 8 38
-8 53 -10 10 -12 9 -7 -6 4 -11 3 -16 -3 -12 -6 3 -10 2 -10 -4 0 -5 3 -11 8
-14 4 -2 2 -2 -5 -1 -6 2 -14 0 -16 -4 -2 -4 -2 -1 0 6 1 7 -2 10 -7 7 -6 -4
-18 2 -28 11 -16 17 -16 18 1 11 9 -3 17 -2 17 2 0 5 -5 11 -11 13 -9 3 -9 9
0 25 7 14 8 24 1 28 -5 3 -10 11 -10 16 0 5 12 -2 26 -16 14 -14 30 -22 36
-19 6 4 8 2 4 -4 -3 -6 -2 -13 4 -17 5 -3 10 -3 11 2 0 4 2 19 5 33 2 14 1 21
-3 15 -11 -14 -43 -18 -43 -5 0 6 4 8 10 5 5 -3 15 5 22 19 12 28 31 36 21 9z
m727 13 c0 -2 -8 -10 -17 -17 -16 -13 -17 -12 -4 4 13 16 21 21 21 13z m-305
-16 c3 -5 1 -10 -4 -10 -6 0 -11 5 -11 10 0 6 2 10 4 10 3 0 8 -4 11 -10z
m422 -27 c-3 -10 -5 -4 -5 12 0 17 2 24 5 18 2 -7 2 -21 0 -30z m-1097 7 c0
-5 -2 -10 -4 -10 -3 0 -8 5 -11 10 -3 6 -1 10 4 10 6 0 11 -4 11 -10z m65 -18
c-3 -3 -11 0 -18 7 -9 10 -8 11 6 5 10 -3 15 -9 12 -12z m1613 7 c-10 -5 -15
-16 -12 -24 4 -8 1 -15 -5 -15 -15 0 -14 37 2 43 22 9 32 7 15 -4z m32 -14
c-14 -7 -27 -11 -30 -9 -6 7 22 24 40 23 9 0 5 -6 -10 -14z m-1607 -18 c-7
-13 -10 -13 -23 1 -13 14 -12 15 3 9 10 -4 17 -2 17 5 0 6 3 9 6 5 3 -3 2 -12
-3 -20z m57 11 c0 -14 -15 -16 -27 -3 -10 11 -9 13 7 12 11 -1 20 -5 20 -9z
m735 2 c-3 -5 0 -10 7 -11 7 0 3 -5 -9 -11 -13 -6 -23 -15 -23 -20 0 -5 5 -6
10 -3 6 3 10 2 10 -3 0 -6 -7 -13 -16 -16 -9 -4 -14 -9 -11 -12 3 -3 15 -1 26
6 12 6 21 8 21 6 0 -7 -76 -46 -87 -46 -4 1 3 7 17 15 14 8 19 14 11 15 -11 0
-9 4 5 15 10 8 14 15 8 15 -14 0 -36 -25 -28 -33 3 -3 -4 -8 -17 -12 -16 -5
-18 -9 -9 -15 9 -6 4 -13 -18 -24 -39 -20 -48 -20 -31 0 11 13 4 12 -28 -5
-51 -26 -48 -25 -50 -1 -1 11 2 20 8 20 5 0 9 8 9 18 0 14 2 15 10 2 6 -9 5
-19 -3 -29 -10 -11 -9 -13 3 -9 8 3 14 12 14 21 -1 11 23 28 73 52 42 20 73
38 70 41 -3 4 -16 -1 -29 -10 -25 -18 -42 -21 -33 -6 7 12 3 12 -20 4 -11 -4
-13 -9 -6 -14 6 -3 -5 -14 -26 -24 -34 -16 -36 -16 -22 0 13 16 12 16 -8 6
-29 -16 -33 -15 -33 6 0 14 2 15 10 2 9 -14 14 -7 11 13 -1 5 3 6 8 2 6 -3 34
6 62 20 60 29 71 31 43 10 -27 -21 -5 -18 36 5 41 23 43 23 35 10z m-820 -29
c-6 -5 -25 10 -25 20 0 5 6 4 14 -3 8 -7 12 -15 11 -17z m1035 14 c0 -8 -2
-15 -4 -15 -2 0 -6 7 -10 15 -3 8 -1 15 4 15 6 0 10 -7 10 -15z m330 -2 c0
-10 3 -36 6 -58 4 -31 3 -36 -6 -23 -11 17 -40 14 -40 -4 0 -5 4 -7 9 -3 5 3
12 1 15 -4 3 -4 -2 -8 -12 -8 -37 0 -47 -3 -36 -11 8 -5 7 -11 -4 -22 -14 -13
-15 -12 -9 4 6 14 2 17 -16 14 -12 -2 -22 -9 -22 -16 0 -8 -11 -20 -25 -27
-14 -8 -20 -14 -15 -15 6 0 21 7 33 16 16 11 27 12 39 5 10 -6 12 -11 6 -11
-23 0 -27 -2 -65 -21 -42 -21 -85 -27 -58 -8 13 9 12 10 -2 5 -10 -3 -26 -9
-35 -12 -12 -4 -9 2 7 15 l25 22 -27 -12 c-16 -7 -28 -19 -28 -28 0 -14 -2
-14 -10 -1 -8 12 -10 12 -10 -5 0 -17 -2 -17 -10 -5 -5 8 -10 24 -10 35 0 14
3 16 8 7 9 -13 42 -6 42 9 0 4 -7 5 -17 2 -11 -4 -14 -3 -9 5 9 14 36 16 36 2
0 -6 10 -5 26 2 18 9 27 9 32 1 5 -8 14 -7 32 3 l25 15 -25 -6 c-22 -6 -21 -4
8 14 18 12 41 21 52 21 11 0 20 7 20 15 0 8 5 15 10 15 6 0 10 10 11 23 0 12
3 16 6 10 8 -22 33 -14 33 10 0 18 -2 19 -10 7 -8 -13 -10 -12 -10 3 0 9 6 17
13 18 6 0 3 4 -8 9 -19 8 -19 9 3 9 14 1 22 -5 22 -16z m331 3 c-13 -7 -19
-15 -12 -17 6 -2 -3 -12 -21 -22 l-33 -19 25 22 c17 15 19 20 8 16 -10 -3 -18
-3 -18 -1 0 6 53 34 65 34 6 0 -1 -6 -14 -13z m-688 -11 c4 -8 3 -16 -1 -19
-4 -3 -9 4 -9 15 -2 23 3 25 10 4z m624 1 c0 -8 -6 -12 -15 -9 -11 5 -11 7 0
14 7 5 13 9 14 9 0 0 1 -6 1 -14z m-327 -4 c0 -5 -9 -13 -19 -18 -18 -8 -18
-10 -3 -24 14 -13 15 -12 9 3 -3 9 -2 17 3 17 15 0 12 -26 -5 -40 -12 -10 -15
-9 -16 6 -1 14 -3 13 -9 -6 -8 -25 -9 -24 -14 23 -1 6 10 20 24 29 30 20 30
20 30 10z m-1310 -24 c0 -6 -6 -5 -15 2 -8 7 -15 14 -15 16 0 2 7 1 15 -2 8
-4 15 -11 15 -16z m63 -21 c-7 -13 -10 -13 -23 1 -13 14 -12 15 3 9 10 -4 17
-2 17 5 0 6 3 9 6 5 3 -3 2 -12 -3 -20z m-28 -16 c-6 -5 -25 10 -25 20 0 5 6
4 14 -3 8 -7 12 -15 11 -17z m409 14 c-4 -8 -10 -15 -15 -15 -4 0 -6 7 -3 15
4 8 10 15 15 15 4 0 6 -7 3 -15z m593 -17 c-3 -7 -5 -2 -5 12 0 14 2 19 5 13
2 -7 2 -19 0 -25z m483 23 c0 -5 -13 -14 -30 -20 -16 -5 -30 -6 -30 -1 0 7 23
18 58 29 1 1 2 -3 2 -8z m-1519 -18 c13 -16 12 -17 -3 -4 -17 13 -22 21 -14
21 2 0 10 -8 17 -17z m94 -32 c-6 -5 -25 10 -25 20 0 5 6 4 14 -3 8 -7 12 -15
11 -17z m980 -2 c4 -22 -9 -39 -30 -39 -5 1 -3 5 6 10 11 7 15 18 11 37 -2 16
-2 25 2 22 4 -4 9 -17 11 -30z m-1015 -27 c0 -3 -9 3 -20 13 -11 10 -20 23
-20 28 0 6 9 0 20 -13 11 -13 20 -25 20 -28z m543 18 c3 -13 0 -23 -8 -26 -8
-3 -11 -12 -8 -20 4 -11 10 -11 36 3 34 17 113 29 87 13 -8 -5 -24 -7 -35 -5
-11 3 -14 2 -7 -1 11 -5 18 -34 7 -34 -3 0 -14 6 -25 12 -16 10 -22 10 -32 -1
-11 -12 -10 -13 6 -7 16 5 17 4 7 -8 -7 -9 -21 -18 -32 -21 -10 -4 -19 -15
-19 -25 0 -10 -7 -21 -16 -24 -9 -4 -13 -2 -8 5 4 7 0 9 -13 5 -13 -4 -20 -2
-20 8 0 8 6 12 14 9 9 -4 11 0 7 13 -3 12 1 10 11 -6 9 -14 14 -17 11 -7 -3 9
-2 17 2 17 5 0 17 7 28 16 12 10 14 14 4 11 -17 -4 -57 29 -47 40 4 3 7 1 7
-5 0 -7 4 -12 9 -12 4 0 6 12 4 28 -4 22 -2 24 7 12 9 -12 11 -10 7 12 -5 31
8 29 16 -2z m193 15 c-15 -11 -16 -15 -5 -15 8 0 20 5 27 12 9 9 12 9 12 1 0
-7 -9 -14 -19 -18 -11 -3 -25 -13 -33 -22 -9 -12 -2 -10 30 6 23 12 42 19 42
17 0 -9 -131 -78 -137 -72 -3 3 7 10 22 16 15 6 25 13 22 16 -3 3 -19 -2 -36
-11 -17 -8 -31 -12 -31 -7 0 4 21 18 46 30 26 13 44 26 40 29 -3 3 -12 0 -21
-7 -9 -7 -18 -10 -21 -7 -3 3 11 15 33 26 45 24 55 26 29 6z m694 5 c-8 -5
-10 -10 -4 -10 6 0 11 -7 11 -15 0 -8 -3 -12 -7 -10 -3 2 -25 -7 -48 -20 -23
-13 -42 -20 -42 -15 0 5 8 11 18 14 9 4 28 16 42 27 l25 20 -25 -6 -25 -6 25
15 c27 17 55 22 30 6z m-63 -22 c2 -18 0 -20 -7 -8 -12 18 -13 30 -2 30 4 0 9
-10 9 -22z m-993 -1 c14 -13 10 -37 -5 -37 -6 0 -7 5 -4 10 4 6 1 17 -5 25
-15 18 -3 20 14 2z m593 0 c0 -7 -9 -14 -20 -14 -19 -2 -19 -2 -1 12 11 8 19
15 20 15 0 0 1 -6 1 -13z m138 -17 c-3 -5 -11 -10 -16 -10 -6 0 -7 5 -4 10 3
6 11 10 16 10 6 0 7 -4 4 -10z m-1101 -27 c3 -8 3 -21 -1 -28 -6 -10 -11 -10
-23 3 -13 14 -12 15 3 9 9 -3 17 -2 17 3 0 6 -4 10 -9 10 -5 0 -11 7 -14 14
-4 10 -1 13 8 10 7 -3 16 -12 19 -21z m59 -7 c-3 -4 -9 -2 -14 5 -13 22 -11
31 5 17 8 -7 12 -17 9 -22z m103 18 c-3 -9 -6 -18 -6 -21 0 -3 -7 0 -15 7 -13
11 -13 15 -3 21 21 13 31 10 24 -7z m1112 -17 c16 6 16 6 0 -10 -9 -9 -22 -15
-30 -14 -7 2 -9 2 -5 -1 4 -2 3 -10 -4 -18 -13 -16 2 -19 17 -4 6 6 10 2 11
-13 0 -12 -1 -17 -4 -10 -2 7 -11 9 -19 6 -13 -5 -13 -8 -2 -15 9 -7 8 -8 -6
-4 -11 4 -23 1 -29 -6 -7 -10 -8 -9 -4 2 4 12 -8 10 -52 -11 -82 -39 -115 -45
-51 -9 30 17 44 28 30 25 l-25 -6 25 15 c18 11 27 11 32 3 5 -8 8 -7 8 4 0 9
7 20 16 23 14 6 15 4 4 -9 -12 -14 -11 -15 13 -4 15 7 27 16 27 21 0 5 -4 6
-10 3 -5 -3 -10 -2 -10 4 0 5 9 13 20 16 11 4 21 16 21 28 l2 22 4 -22 c3 -16
9 -20 21 -16z m-1155 9 c4 -10 1 -13 -9 -9 -15 6 -19 23 -5 23 5 0 11 -7 14
-14z m134 0 c-3 -8 3 -23 14 -35 11 -12 18 -21 15 -21 -2 0 -12 -3 -21 -7 -14
-5 -16 -2 -10 18 5 18 4 20 -4 9 -15 -21 -25 -5 -12 19 10 17 9 20 -4 15 -8
-3 -12 -11 -8 -17 3 -5 1 -7 -4 -4 -6 4 -16 -7 -23 -23 -7 -17 -16 -30 -21
-30 -18 0 -7 25 28 66 20 23 58 31 50 10z m1153 -6 c-8 -5 -17 -7 -19 -4 -3 3
1 9 9 14 8 5 17 7 19 4 3 -3 -1 -9 -9 -14z m-1495 -8 c-3 -3 -11 0 -18 7 -9
10 -8 11 6 5 10 -3 15 -9 12 -12z m275 11 c-1 -17 -26 -48 -41 -51 -9 -1 -24
7 -34 18 -17 18 -17 20 -2 14 9 -3 17 -10 17 -15 0 -5 5 -9 11 -9 5 0 7 4 4
10 -3 6 1 7 10 4 9 -4 15 -3 14 2 -3 19 1 34 11 34 6 0 10 -3 10 -7z m560 -8
c-6 -8 -20 -17 -31 -20 -10 -4 -19 -11 -19 -16 0 -6 10 -5 23 2 19 11 21 10 9
-3 -11 -14 -9 -17 15 -25 20 -7 23 -11 11 -15 -14 -6 -78 29 -78 42 0 5 70 48
79 50 2 0 -2 -7 -9 -15z m247 -17 c-3 -7 -5 -2 -5 12 0 14 2 19 5 13 2 -7 2
-19 0 -25z m333 28 c0 -2 -7 -7 -16 -10 -8 -3 -12 -2 -9 4 6 10 25 14 25 6z
m-1375 -16 c3 -5 2 -16 -2 -24 -7 -12 -10 -11 -23 2 -13 14 -12 15 3 9 9 -3
17 -2 17 2 0 5 -6 12 -12 14 -10 4 -10 6 -1 6 6 1 15 -3 18 -9z m418 -26 c-15
-11 -16 -15 -4 -23 7 -5 11 -13 7 -19 -3 -6 -2 -13 3 -17 12 -7 10 -45 -2 -45
-5 0 -6 10 -3 23 6 22 6 22 -6 -1 -9 -18 -9 -25 0 -31 8 -5 9 -17 3 -39 -8
-25 -7 -32 4 -32 9 0 12 -6 9 -15 -5 -13 -8 -13 -21 0 -12 12 -13 22 -4 46 8
22 7 29 -1 27 -6 -2 -13 -13 -14 -23 -2 -11 -8 -21 -14 -23 -5 -2 -15 -12 -20
-23 -9 -15 -8 -17 5 -13 12 5 15 1 12 -17 -2 -13 -2 -18 0 -11 7 20 22 14 16
-7 -3 -11 -13 -19 -23 -18 -11 1 -16 7 -12 19 2 10 -1 18 -7 18 -6 0 -11 8
-11 17 0 25 -10 10 -16 -23 -3 -21 -2 -25 5 -14 12 17 23 10 12 -8 -4 -7 -15
-10 -24 -6 -12 4 -14 11 -7 28 6 18 4 22 -11 22 -21 0 -25 -12 -6 -19 9 -4 9
-6 0 -6 -6 -1 -14 3 -18 9 -3 5 -13 7 -23 4 -14 -5 -15 -4 -2 5 13 9 11 11 -7
11 -12 0 -24 4 -28 9 -3 6 7 6 27 0 41 -11 41 -11 33 1 -3 6 -1 10 4 10 6 0
11 -4 11 -10 0 -5 4 -10 10 -10 5 0 8 6 6 13 -1 6 -1 9 1 5 3 -5 9 -8 14 -8 6
0 7 4 4 10 -3 6 1 7 9 4 19 -7 22 12 4 20 -7 3 -3 3 9 1 25 -7 41 13 22 27
-11 8 -10 9 3 5 18 -6 33 19 18 28 -6 4 -10 1 -10 -6 0 -7 -2 -10 -5 -7 -8 8
6 39 15 33 4 -2 12 7 18 20 8 18 8 23 -1 21 -7 -1 -9 -1 -6 1 3 2 4 15 1 28
-2 15 0 25 7 25 7 0 9 5 5 13 -5 8 -2 7 9 -2 16 -13 16 -14 0 -27z m407 32 c0
-2 -8 -10 -17 -17 -16 -13 -17 -12 -4 4 13 16 21 21 21 13z m-689 -23 c13 -16
12 -17 -3 -4 -10 7 -18 15 -18 17 0 8 8 3 21 -13z m700 -6 c-10 -9 -11 -8 -5
6 3 10 9 15 12 12 3 -3 0 -11 -7 -18z m173 12 c-2 -4 2 -9 8 -12 7 -3 4 -5 -8
-4 -22 1 -30 24 -8 24 7 0 11 -4 8 -8z m406 1 c-8 -5 -19 -10 -25 -10 -5 0 -3
5 5 10 8 5 20 10 25 10 6 0 3 -5 -5 -10z m50 6 c0 -2 -11 -11 -25 -20 -14 -9
-25 -13 -25 -8 0 5 10 14 23 20 27 13 27 13 27 8z m-1345 -26 c10 -11 16 -20
13 -20 -3 0 -15 9 -28 20 -13 11 -19 20 -13 20 5 0 18 -9 28 -20z m-80 -19
c-6 -5 -25 10 -25 20 0 5 6 4 14 -3 8 -7 12 -15 11 -17z m221 3 c-6 -29 -13
-40 -21 -32 -6 5 15 58 22 58 2 0 1 -12 -1 -26z m926 3 c-23 -12 -41 -26 -38
-33 2 -6 -13 -17 -34 -24 -28 -9 -37 -17 -33 -29 4 -9 3 -13 -1 -10 -14 13
-17 59 -4 59 10 0 10 2 0 8 -8 6 -1 14 24 26 22 10 40 13 43 8 4 -6 18 -5 36
3 48 22 54 16 7 -8z m-1208 -3 c3 -8 2 -12 -4 -9 -6 3 -10 10 -10 16 0 14 7
11 14 -7z m826 6 c0 -5 -5 -10 -11 -10 -5 0 -7 5 -4 10 3 6 8 10 11 10 2 0 4
-4 4 -10z m559 -10 c-16 -12 -19 -19 -10 -20 8 0 12 -2 9 -5 -3 -3 -13 -3 -22
1 -15 6 -14 8 5 25 12 11 26 19 32 19 5 0 -1 -9 -14 -20z m88 -2 c-3 -8 -6 -5
-6 6 -1 11 2 17 5 13 3 -3 4 -12 1 -19z m70 8 c0 -8 -6 -12 -14 -9 -7 3 -10 9
-7 14 8 14 21 11 21 -5z m-1144 -12 c-3 -9 0 -20 8 -26 11 -8 10 -9 -3 -4 -11
3 -19 -2 -24 -16 -4 -14 -8 -17 -14 -8 -5 8 -9 4 -13 -11 -4 -13 -2 -26 4 -30
7 -4 4 -9 -6 -13 -9 -3 -21 -4 -26 0 -5 3 -9 1 -9 -5 0 -5 5 -12 10 -14 6 -3
5 -4 -2 -3 -14 3 -20 46 -7 46 5 0 9 -4 9 -10 0 -5 5 -10 11 -10 5 0 7 5 4 11
-12 18 4 61 20 55 8 -3 16 -1 16 4 1 6 3 15 4 20 1 6 3 15 4 20 0 6 5 10 11
10 5 0 7 -7 3 -16z m644 -16 c-3 -7 -5 -2 -5 12 0 14 2 19 5 13 2 -7 2 -19 0
-25z m-903 -27 c-5 -6 -44 30 -44 41 0 5 11 -2 24 -14 13 -13 22 -25 20 -27z
m11 29 c26 -29 15 -32 -13 -4 -12 13 -19 24 -14 24 5 0 17 -9 27 -20z m64 1
c9 -6 10 -11 2 -15 -6 -4 -8 -13 -4 -19 4 -7 0 -6 -10 2 -18 15 -23 26 -7 16
6 -3 10 -2 10 4 0 5 -6 12 -12 14 -7 3 -8 6 -3 6 6 0 16 -3 24 -8z m101 -16
c-6 -16 -6 -25 0 -25 6 0 10 -5 10 -11 0 -5 -4 -8 -9 -4 -5 3 -12 -4 -16 -15
-4 -11 -11 -18 -16 -15 -5 4 -9 2 -9 -4 0 -5 3 -11 8 -14 4 -2 2 -2 -5 -1 -6
2 -13 -1 -15 -6 -2 -5 -12 -2 -23 7 -19 15 -19 15 4 8 16 -5 21 -4 17 4 -4 6
-2 11 4 11 6 0 8 4 5 10 -4 6 1 7 12 3 10 -3 15 -3 11 2 -4 4 -3 16 3 27 7 14
7 23 -2 34 -9 11 -8 14 10 14 18 0 19 -3 11 -25z m-280 11 c0 -3 -4 -8 -10
-11 -5 -3 -10 -1 -10 4 0 6 5 11 10 11 6 0 10 -2 10 -4z m40 -18 c0 -6 -6 -5
-15 2 -8 7 -15 14 -15 16 0 2 7 1 15 -2 8 -4 15 -11 15 -16z m775 12 c-3 -5
-12 -10 -18 -10 -7 0 -6 4 3 10 19 12 23 12 15 0z m222 -22 c-3 -7 -5 -2 -5
12 0 14 2 19 5 13 2 -7 2 -19 0 -25z m388 22 c-3 -5 -12 -10 -18 -10 -7 0 -6
4 3 10 19 12 23 12 15 0z m139 -3 c-12 -7 -19 -17 -17 -23 2 -6 -3 -14 -12
-17 -8 -4 -15 -2 -15 3 0 6 6 10 13 11 8 0 8 2 -2 6 -10 4 -8 9 10 19 30 17
52 18 23 1z m102 -2 c-11 -8 -24 -15 -30 -15 -5 0 -1 7 10 15 10 8 24 14 29
14 6 0 1 -6 -9 -14z m69 5 c-3 -5 -12 -10 -18 -10 -7 0 -6 4 3 10 19 12 23 12
15 0z m-1475 -7 c0 -5 -5 -15 -10 -23 -8 -13 -11 -13 -19 -1 -5 8 -16 11 -25
8 -9 -4 -16 -1 -16 5 0 6 11 8 30 4 19 -3 29 -2 25 4 -3 6 -1 10 4 10 6 0 11
-3 11 -7z m1056 -8 c-3 -8 0 -15 6 -15 6 0 9 -2 6 -5 -3 -3 -12 -3 -21 1 -13
5 -14 9 -4 20 16 18 20 17 13 -1z m274 -5 c-19 -12 -30 -12 -30 -1 0 10 31 20
40 14 2 -2 -2 -8 -10 -13z m-430 -22 c-36 -17 -73 -35 -82 -39 -11 -5 -18 -5
-18 0 0 8 135 69 155 70 6 0 -19 -14 -55 -31z m510 12 c-19 -11 -39 -19 -45
-19 -5 0 6 8 25 19 19 11 40 19 45 19 6 0 -6 -8 -25 -19z m-1675 -1 c11 -16 1
-19 -13 -3 -7 8 -8 14 -3 14 5 0 13 -5 16 -11z m835 -9 c15 -15 16 -20 6 -20
-8 0 -18 5 -21 10 -4 6 -16 8 -28 4 -19 -6 -20 -5 -8 10 18 21 27 20 51 -4z
m190 0 c0 -5 -2 -10 -4 -10 -3 0 -8 5 -11 10 -3 6 -1 10 4 10 6 0 11 -4 11
-10z m230 -5 c-7 -9 -15 -13 -19 -10 -3 3 1 10 9 15 21 14 24 12 10 -5z
m-1030 -16 c0 -14 -17 -10 -23 5 -4 10 -1 13 9 9 7 -3 14 -9 14 -14z m-325 -7
c-3 -3 -11 0 -18 7 -9 10 -8 11 6 5 10 -3 15 -9 12 -12z m1285 8 c0 -5 -9 -10
-19 -10 -11 0 -23 -5 -26 -10 -4 -7 3 -9 22 -5 24 4 23 3 -9 -13 -46 -23 -62
-37 -29 -27 16 5 21 4 17 -4 -4 -6 0 -11 9 -11 9 0 13 4 10 10 -3 6 1 7 10 4
14 -6 14 -8 -2 -19 -10 -6 -27 -14 -38 -17 -11 -3 -28 -9 -37 -13 -14 -5 -18
-2 -18 14 0 12 5 21 10 21 6 0 10 7 10 15 0 7 8 19 18 24 19 12 12 14 -12 5
-9 -3 -16 -12 -16 -19 0 -7 -7 -16 -16 -19 -24 -9 -31 -7 -11 5 9 6 15 14 12
19 -8 12 21 27 113 59 1 1 2 -3 2 -9z m120 0 c-8 -5 -19 -10 -25 -10 -5 0 -3
5 5 10 8 5 20 10 25 10 6 0 3 -5 -5 -10z m132 3 c-6 -2 -10 -9 -7 -14 4 -5 -1
-6 -10 -3 -11 4 -14 2 -10 -9 4 -8 -1 -17 -11 -21 -15 -6 -15 -4 -3 10 12 15
11 16 -11 10 -18 -5 -16 -1 10 13 19 11 40 20 45 20 6 0 4 -3 -3 -6z m-415
-25 c-3 -8 -6 -5 -6 6 -1 11 2 17 5 13 3 -3 4 -12 1 -19z m33 2 c0 -11 -2 -20
-4 -20 -2 0 -6 9 -9 20 -3 11 -1 20 4 20 5 0 9 -9 9 -20z m-960 -5 c0 -12 -19
-12 -23 0 -4 9 -1 12 9 8 7 -3 14 -7 14 -8z m-165 -6 c11 -16 1 -19 -13 -3 -7
8 -8 14 -3 14 5 0 13 -5 16 -11z m100 0 c11 -16 1 -19 -13 -3 -7 8 -8 14 -3
14 5 0 13 -5 16 -11z m1181 -4 c-11 -8 -25 -15 -30 -15 -6 1 0 7 14 15 32 19
40 18 16 0z m84 3 c0 -4 -10 -13 -22 -19 -22 -11 -22 -11 -8 6 14 17 13 17
-10 11 -18 -5 -21 -5 -11 3 17 11 51 11 51 -1z m-1330 -33 c11 -13 10 -14 -4
-9 -9 3 -16 10 -16 15 0 13 6 11 20 -6z m205 -14 c-6 -5 -25 10 -25 20 0 5 6
4 14 -3 8 -7 12 -15 11 -17z m85 19 c0 -5 -4 -10 -10 -10 -5 0 -10 5 -10 10 0
6 5 10 10 10 6 0 10 -4 10 -10z m1019 -19 c-12 -9 -30 -24 -40 -33 -24 -22
-33 -23 -25 -2 6 15 4 15 -10 3 -10 -8 -12 -15 -5 -17 6 -2 11 -8 11 -14 0 -5
-6 -8 -12 -6 -7 3 -20 -5 -30 -16 -10 -12 -17 -16 -18 -9 0 6 5 15 10 18 6 3
10 11 10 18 0 6 -7 1 -16 -11 -9 -13 -22 -21 -30 -18 -9 3 -11 0 -7 -11 4 -11
3 -14 -6 -9 -7 4 -20 -2 -31 -16 -11 -13 -19 -18 -20 -12 0 5 6 16 13 24 10
12 9 12 -6 1 -10 -8 -15 -21 -12 -32 3 -9 0 -21 -6 -25 -7 -4 -9 -3 -5 4 3 6
2 13 -4 17 -5 3 -10 1 -10 -4 0 -6 -5 -11 -11 -11 -5 0 -7 6 -3 13 4 6 -2 3
-14 -7 -14 -12 -22 -14 -22 -7 0 16 29 45 37 38 10 -10 33 21 27 36 -6 17 117
71 127 55 4 -5 9 -4 12 5 3 8 19 17 37 20 17 4 29 10 27 14 -3 5 8 8 24 9 29
1 29 1 8 -15z m121 9 c0 -16 -39 -32 -56 -22 -15 8 -15 10 0 15 10 4 15 3 11
-3 -10 -16 13 -12 27 5 16 17 18 18 18 5z m-1270 -20 c13 -11 18 -20 12 -20
-10 0 -42 27 -42 36 0 8 7 4 30 -16z m335 -18 c-8 -9 -25 20 -18 31 3 5 10 2
15 -7 6 -10 7 -20 3 -24z m-415 -8 c0 -3 -7 -1 -15 6 -8 7 -15 17 -15 22 0 5
7 3 15 -6 8 -8 15 -18 15 -22z m1000 4 c0 -19 -16 -5 -17 14 -2 18 0 20 7 8 5
-8 10 -18 10 -22z m216 -8 c-20 -18 -36 -37 -36 -43 0 -6 9 -1 20 11 26 27 34
28 20 2 -12 -22 -1 -26 20 -7 8 6 7 3 -3 -9 -20 -25 -22 -35 -4 -28 10 3 13
-4 12 -26 -1 -16 3 -30 9 -30 6 0 5 -4 -3 -9 -9 -6 -10 -11 -2 -15 6 -4 9 -12
5 -17 -3 -5 -2 -15 3 -22 13 -18 11 -29 -15 -62 -12 -17 -19 -22 -16 -13 8 22
-12 24 -20 2 -3 -9 -12 -14 -20 -11 -7 3 -19 0 -26 -6 -7 -7 -5 0 5 16 9 15
13 27 7 27 -6 0 -12 -3 -15 -7 -2 -5 -2 -2 -1 4 2 7 -1 13 -6 13 -6 0 -10 -5
-10 -12 0 -6 -3 -9 -6 -6 -3 4 -1 16 6 27 6 12 7 21 2 21 -5 0 -14 -10 -20
-22 -6 -13 -11 -18 -11 -11 -1 6 24 41 55 77 31 37 54 70 50 74 -4 4 -12 -1
-17 -11 -6 -9 -14 -17 -20 -17 -5 0 -1 10 11 22 11 12 20 27 20 32 0 6 -17 -7
-36 -29 -20 -22 -31 -30 -25 -18 6 12 16 25 21 28 6 3 10 11 10 17 0 6 -12 1
-27 -13 -24 -22 -24 -14 2 20 22 31 87 92 92 87 3 -3 -11 -19 -31 -36z m-199
-2 c-3 -7 -5 -2 -5 12 0 14 2 19 5 13 2 -7 2 -19 0 -25z m-1083 -27 c-5 -6
-44 30 -44 41 0 5 11 -2 24 -14 13 -13 22 -25 20 -27z m827 16 c-13 -12 -20
-15 -16 -7 14 26 28 41 33 35 3 -3 -5 -16 -17 -28z m588 30 c-2 -1 -13 -9 -24
-17 -19 -14 -19 -14 -6 3 7 9 18 17 24 17 6 0 8 -1 6 -3z m-1164 -25 c-3 -3
-11 0 -18 7 -9 10 -8 11 6 5 10 -3 15 -9 12 -12z m715 -9 c0 -12 -2 -12 -15 1
-8 8 -15 17 -15 20 0 3 7 3 15 0 8 -4 15 -13 15 -21z m-102 -42 c-9 -41 -18
-56 -40 -67 -16 -8 -28 -10 -28 -4 0 5 -9 10 -21 10 -11 0 -17 5 -14 10 3 6
16 10 29 10 12 0 31 7 42 15 18 14 18 14 -8 15 -32 0 -37 16 -9 25 10 3 26 14
36 25 10 11 20 19 22 17 2 -2 -2 -28 -9 -56z m182 29 c0 -5 -4 -10 -10 -10 -5
0 -10 5 -10 10 0 6 5 10 10 10 6 0 10 -4 10 -10z m819 6 c-2 -2 -15 -9 -29
-15 -24 -11 -24 -11 -6 3 16 13 49 24 35 12z m-1674 -24 c-3 -3 -11 0 -18 7
-9 10 -8 11 6 5 10 -3 15 -9 12 -12z m1155 14 c0 -3 -4 -8 -10 -11 -5 -3 -10
-1 -10 4 0 6 5 11 10 11 6 0 10 -2 10 -4z m-1045 -17 c11 -16 1 -19 -13 -3 -7
8 -8 14 -3 14 5 0 13 -5 16 -11z m895 -11 c-23 -25 -26 -38 -8 -38 6 0 9 -2 6
-5 -8 -9 -38 6 -32 16 3 5 1 9 -4 9 -6 0 -13 -7 -16 -16 -3 -9 -12 -14 -20
-11 -7 3 -19 0 -25 -6 -18 -18 -13 -2 7 20 9 11 23 18 30 16 6 -3 12 1 12 7 0
7 8 9 19 5 12 -3 21 0 25 10 3 8 10 15 16 15 6 0 2 -10 -10 -22z m610 12 c0
-5 -8 -10 -17 -10 -15 0 -16 2 -3 10 19 12 20 12 20 0z m-1687 -24 c4 -10 1
-13 -8 -9 -8 3 -12 9 -9 14 7 12 11 11 17 -5z m237 4 c0 -5 -10 -10 -22 -9
-22 0 -22 1 -3 9 11 5 21 9 23 9 1 1 2 -3 2 -9z m1440 -10 c-8 -5 -19 -10 -25
-10 -5 0 -3 5 5 10 8 5 20 10 25 10 6 0 3 -5 -5 -10z m-1557 -49 c-4 -6 -43
30 -43 40 0 5 10 -2 23 -14 13 -12 22 -24 20 -26z m37 39 c0 -5 -5 -10 -11
-10 -5 0 -7 5 -4 10 3 6 8 10 11 10 2 0 4 -4 4 -10z m-109 -27 c-12 -20 -14
-14 -5 12 4 9 9 14 11 11 3 -2 0 -13 -6 -23z m159 23 c0 -3 -4 -8 -10 -11 -5
-3 -10 -1 -10 4 0 6 5 11 10 11 6 0 10 -2 10 -4z m16 -33 c-11 -11 -17 4 -9
23 7 18 8 18 11 1 2 -10 1 -21 -2 -24z m-31 -1 c-6 -7 -34 11 -29 19 3 5 11 3
19 -4 7 -6 12 -13 10 -15z m672 8 c-3 -10 -2 -21 2 -23 3 -2 0 -2 -8 0 -8 2
-18 -2 -23 -9 -5 -9 -8 -8 -8 6 0 10 8 25 18 32 23 18 25 17 19 -6z m683 10
c-8 -5 -19 -10 -25 -10 -5 0 -3 5 5 10 8 5 20 10 25 10 6 0 3 -5 -5 -10z m34
-16 c3 -8 2 -12 -4 -9 -6 3 -10 10 -10 16 0 14 7 11 14 -7z m-1789 -5 c11 -16
1 -19 -13 -3 -7 8 -8 14 -3 14 5 0 13 -5 16 -11z m1287 0 c16 -9 23 -8 29 2 5
8 9 9 9 3 0 -6 -9 -19 -20 -29 -18 -17 -20 -17 -14 -2 9 24 -4 21 -27 -5 -22
-28 -25 -45 -4 -28 23 19 18 6 -10 -26 -14 -16 -23 -21 -19 -11 4 10 1 17 -7
17 -7 0 0 13 16 30 16 16 26 32 23 36 -3 3 -16 -5 -28 -18 -22 -22 -22 -22
-11 -1 8 16 8 23 -2 27 -6 3 -2 3 11 0 12 -3 22 -1 22 5 0 14 6 14 32 0z m482
-5 c3 -8 2 -12 -4 -9 -6 3 -10 10 -10 16 0 14 7 11 14 -7z m-1723 -11 c13 -16
12 -17 -3 -4 -17 13 -22 21 -14 21 2 0 10 -8 17 -17z m209 2 c0 -12 -19 -12
-23 0 -4 9 -1 12 9 8 7 -3 14 -7 14 -8z m60 5 c8 -5 11 -10 5 -10 -5 0 -17 5
-25 10 -8 5 -10 10 -5 10 6 0 17 -5 25 -10z m73 -7 c-7 -3 -9 -12 -6 -21 6
-14 5 -15 -9 -2 -9 8 -12 17 -7 18 5 2 7 8 4 13 -4 5 2 6 11 2 10 -4 13 -8 7
-10z m62 7 c3 -5 1 -10 -4 -10 -6 0 -11 5 -11 10 0 6 2 10 4 10 3 0 8 -4 11
-10z m337 -63 c11 -10 27 -17 36 -15 18 4 18 10 6 42 -6 16 -4 18 10 13 9 -4
33 0 53 8 49 21 53 19 42 -15 -10 -28 -40 -47 -57 -36 -5 3 -19 -4 -31 -16
-20 -18 -26 -19 -46 -8 -13 7 -28 10 -33 6 -20 -12 -44 6 -38 29 3 12 -2 32
-11 46 -14 21 -12 20 17 -6 18 -16 42 -38 52 -48z m227 47 c-6 -8 -18 -14 -26
-14 -8 0 -11 -5 -7 -12 4 -7 3 -8 -5 -4 -6 4 -20 2 -29 -6 -16 -12 -16 -11 0
12 9 14 23 24 31 22 8 -1 17 5 21 13 3 9 11 13 16 10 8 -5 7 -11 -1 -21z
m-929 12 c0 -3 -4 -8 -10 -11 -5 -3 -10 -1 -10 4 0 6 5 11 10 11 6 0 10 -2 10
-4z m1104 -8 c-5 -8 -2 -9 11 -4 18 7 18 6 0 -16 -11 -13 -22 -25 -24 -28 -2
-3 0 6 3 20 7 25 7 25 -10 5 -13 -15 -15 -16 -11 -3 3 9 3 19 -1 21 -4 2 -2 2
5 1 7 -2 15 1 18 6 4 6 8 10 11 10 3 0 2 -5 -2 -12z m283 -10 c-3 -8 -6 -5 -6
6 -1 11 2 17 5 13 3 -3 4 -12 1 -19z m140 14 c8 -5 7 -15 -3 -37 -8 -16 -12
-22 -9 -12 4 17 -9 24 -18 10 -2 -5 -2 -2 0 5 1 8 3 20 3 28 0 15 9 18 27 6z
m-1258 -21 c7 -5 9 -11 5 -14 -5 -3 -15 1 -22 9 -14 16 -5 18 17 5z m-89 -15
c0 -3 -4 -8 -10 -11 -5 -3 -10 -1 -10 4 0 6 5 11 10 11 6 0 10 -2 10 -4z m137
-16 c-1 -11 -5 -20 -9 -20 -10 0 -10 4 -2 24 8 22 13 20 11 -4z m678 1 c3 -5
2 -12 -3 -15 -5 -3 -9 1 -9 9 0 17 3 19 12 6z m122 -5 c-3 -8 -1 -16 5 -18 6
-2 3 -10 -6 -17 -14 -12 -16 -11 -9 5 6 17 5 18 -12 4 -18 -14 -18 -14 0 12
22 30 30 35 22 14z m253 4 c0 -5 -2 -10 -4 -10 -3 0 -8 5 -11 10 -3 6 -1 10 4
10 6 0 11 -4 11 -10z m105 -8 c-3 -3 -11 0 -18 7 -9 10 -8 11 6 5 10 -3 15 -9
12 -12z m-1185 -12 c13 -11 20 -20 16 -20 -4 0 -19 9 -33 20 -14 11 -21 20
-16 20 6 0 20 -9 33 -20z m-245 -10 c3 -5 1 -10 -4 -10 -6 0 -11 5 -11 10 0 6
2 10 4 10 3 0 8 -4 11 -10z m490 -38 c-7 -32 -28 -55 -60 -65 l-20 -7 20 18
c24 21 59 81 52 89 -3 2 -18 -14 -33 -36 -28 -44 -34 -48 -34 -28 0 6 14 27
31 45 36 38 55 31 44 -16z m505 45 c0 -2 -10 -12 -22 -23 l-23 -19 19 23 c18
21 26 27 26 19z m30 -1 c0 -2 -7 -9 -15 -16 -13 -11 -14 -10 -9 4 5 14 24 23
24 12z m-930 -26 c13 -11 20 -20 16 -20 -4 0 -19 9 -33 20 -14 11 -21 20 -16
20 6 0 20 -9 33 -20z m507 0 c-3 -11 -3 -20 -1 -20 3 0 14 9 26 20 12 11 26
20 32 20 20 0 -37 -43 -61 -46 -14 -1 -31 -11 -38 -21 -7 -10 -17 -15 -21 -10
-4 4 -2 7 5 7 7 0 10 4 7 8 -3 5 6 15 19 22 14 7 25 19 25 27 0 7 3 13 6 13 4
0 4 -9 1 -20z m-359 2 c14 -9 6 -42 -10 -42 -6 0 -6 6 1 14 10 11 8 17 -6 25
-10 6 -13 10 -8 11 6 0 16 -4 23 -8z m898 -17 c-3 -8 -1 -15 3 -15 5 0 12 6
14 13 3 7 6 7 6 1 1 -6 -7 -18 -17 -27 -20 -18 -19 -21 -13 36 1 4 4 7 7 7 3
0 4 -7 0 -15z m-866 -15 c0 -5 -5 -10 -11 -10 -5 0 -7 5 -4 10 3 6 8 10 11 10
2 0 4 -4 4 -10z m-135 -10 c3 -6 -1 -7 -9 -4 -18 7 -21 14 -7 14 6 0 13 -4 16
-10z m1155 6 c0 -3 -4 -8 -10 -11 -5 -3 -10 -1 -10 4 0 6 5 11 10 11 6 0 10
-2 10 -4z m-1180 -16 c8 -5 11 -10 5 -10 -5 0 -17 5 -25 10 -8 5 -10 10 -5 10
6 0 17 -5 25 -10z m410 5 c0 -2 -10 -10 -22 -16 -21 -11 -22 -11 -9 4 13 16
31 23 31 12z m550 -9 c0 -2 -8 -10 -17 -17 -16 -13 -17 -12 -4 4 13 16 21 21
21 13z m155 -26 c-20 -23 -29 -21 -19 4 3 9 13 16 22 16 13 0 12 -3 -3 -20z"/>
<path d="M5020 969 c0 -5 5 -7 10 -4 6 3 10 8 10 11 0 2 -4 4 -10 4 -5 0 -10
-5 -10 -11z"/>
<path d="M4940 855 c-25 -13 -38 -24 -30 -24 8 0 33 11 55 24 51 32 34 32 -25
0z"/>
<path d="M4856 815 c4 -8 8 -15 10 -15 2 0 4 7 4 15 0 8 -4 15 -10 15 -5 0 -7
-7 -4 -15z"/>
<path d="M4371 803 c-9 -20 -9 -28 0 -33 6 -4 8 -14 5 -21 -4 -8 -1 -6 7 3 8
10 18 14 22 10 4 -4 2 4 -6 18 -7 14 -12 31 -11 38 5 21 -4 13 -17 -15z m19
-23 c0 -5 -2 -10 -4 -10 -3 0 -8 5 -11 10 -3 6 -1 10 4 10 6 0 11 -4 11 -10z"/>
<path d="M4296 805 c-3 -8 -1 -17 5 -21 6 -3 8 -12 5 -20 -3 -8 0 -11 9 -7 8
3 12 9 9 14 -3 5 -1 9 5 9 14 0 3 27 -14 34 -7 2 -16 -2 -19 -9z"/>
<path d="M4898 732 c-21 -10 -38 -20 -38 -25 0 -4 18 2 40 13 22 11 40 23 40
25 0 3 -1 5 -2 4 -2 0 -20 -8 -40 -17z"/>
<path d="M5300 570 c-13 -8 -13 -10 -1 -10 11 0 9 -4 -5 -15 -24 -18 -7 -19
26 0 15 9 19 14 10 15 -13 0 -13 1 0 10 13 9 13 10 0 10 -8 0 -22 -5 -30 -10z"/>
<path d="M5337 359 c-9 -6 -27 -12 -39 -14 -24 -5 -49 -25 -31 -25 17 0 81 29
88 40 8 12 5 12 -18 -1z"/>
<path d="M5466 248 c-10 -13 -28 -33 -39 -45 -11 -13 -18 -25 -15 -28 3 -3 24
17 48 45 23 27 38 50 33 50 -5 0 -17 -10 -27 -22z"/>
<path d="M5457 199 c-41 -45 -44 -54 -22 -63 8 -3 12 -12 9 -21 -9 -22 5 -18
27 8 12 14 18 17 19 8 0 -8 3 -11 8 -7 10 11 10 56 -1 49 -4 -3 -6 -12 -3 -20
3 -8 1 -11 -5 -8 -5 4 -15 2 -22 -3 -8 -7 -15 -6 -22 2 -8 8 -3 19 18 40 20
21 26 24 21 10 -7 -17 -6 -18 10 -5 12 10 14 16 5 21 -6 4 -8 13 -5 19 14 22
-2 10 -37 -30z"/>
<path d="M5460 165 c-8 -9 -8 -15 -2 -15 12 0 26 19 19 26 -2 2 -10 -2 -17
-11z"/>
<path d="M4511 1404 c0 -11 3 -14 6 -6 3 7 2 16 -1 19 -3 4 -6 -2 -5 -13z"/>
<path d="M4540 1410 c13 -9 13 -10 0 -11 -8 0 -4 -5 10 -9 17 -5 19 -8 8 -9
-12 -1 -18 -9 -18 -25 0 -13 -6 -27 -12 -29 -7 -3 -3 -6 8 -6 17 -1 21 4 19
24 -4 28 9 34 19 9 3 -8 2 -12 -4 -9 -6 3 -10 1 -10 -4 0 -6 5 -11 11 -11 6 0
4 -7 -5 -15 -8 -8 -23 -12 -33 -9 -13 4 -11 0 7 -14 22 -19 47 -21 36 -4 -2 4
3 16 11 27 14 18 15 18 9 2 -4 -13 -2 -17 6 -14 7 2 12 10 10 17 -3 11 0 11
12 0 17 -13 20 -21 9 -18 -5 0 -16 -2 -25 -6 -23 -10 -24 -41 -2 -32 9 3 21 6
27 6 7 0 6 5 -3 11 -11 8 -8 9 15 4 16 -4 34 -7 39 -8 21 -4 46 -33 45 -52 -1
-17 -2 -16 -9 5 -8 24 -8 24 -9 3 -1 -13 -5 -23 -11 -23 -5 0 -1 -9 10 -20 11
-11 20 -28 19 -37 0 -14 -2 -13 -9 5 -13 31 -15 28 -16 -21 -1 -23 1 -32 3
-20 3 14 9 20 19 16 8 -3 14 1 14 8 0 8 3 25 7 38 4 17 3 22 -6 17 -11 -7 -10
9 6 68 3 12 1 16 -6 12 -6 -4 -11 -2 -11 5 0 7 -8 21 -17 32 -10 11 -12 17 -5
13 16 -10 15 2 -2 20 -9 8 -22 11 -33 7 -15 -6 -16 -4 -6 8 10 12 8 18 -7 32
-11 9 -20 12 -20 7 0 -6 -6 -10 -14 -10 -8 0 -17 -8 -19 -17 -4 -17 -5 -17 -6
0 0 10 -5 15 -11 12 -5 -3 -10 1 -10 10 0 9 -4 13 -10 10 -5 -3 -10 -1 -10 4
0 6 -8 11 -17 11 -15 0 -16 -2 -3 -10z m113 -47 c-4 -11 -8 -13 -11 -5 -2 7
-8 10 -13 6 -5 -3 -9 0 -9 5 0 6 9 11 20 11 14 0 18 -5 13 -17z m34 -29 c-3
-3 -12 -4 -19 -1 -8 3 -5 6 6 6 11 1 17 -2 13 -5z"/>
<path d="M4341 1394 c0 -11 3 -14 6 -6 3 7 2 16 -1 19 -3 4 -6 -2 -5 -13z"/>
<path d="M4861 1389 c-1 -33 20 -83 37 -86 6 -2 12 4 12 13 0 8 -4 13 -9 9
-13 -7 -23 11 -32 55 -5 29 -7 30 -8 9z"/>
<path d="M4231 1369 c-6 -18 -9 -34 -7 -36 2 -2 9 10 15 28 6 18 9 34 7 36 -2
2 -9 -10 -15 -28z"/>
<path d="M4841 1384 c0 -11 3 -14 6 -6 3 7 2 16 -1 19 -3 4 -6 -2 -5 -13z"/>
<path d="M4912 1380 c0 -14 2 -19 5 -12 2 6 2 18 0 25 -3 6 -5 1 -5 -13z"/>
<path d="M4178 1378 c12 -6 22 -18 22 -27 0 -14 2 -14 10 -1 5 8 10 22 10 30
0 11 -2 12 -8 3 -5 -8 -13 -9 -22 -3 -8 6 -19 9 -25 9 -5 0 0 -5 13 -11z"/>
<path d="M2790 1349 c0 -25 7 -42 25 -59 32 -30 32 -10 0 50 l-24 45 -1 -36z"/>
<path d="M4891 1364 c0 -11 3 -14 6 -6 3 7 2 16 -1 19 -3 4 -6 -2 -5 -13z"/>
<path d="M4715 1360 c-3 -5 -1 -10 4 -10 6 0 11 5 11 10 0 6 -2 10 -4 10 -3 0
-8 -4 -11 -10z"/>
<path d="M4941 1344 c0 -11 3 -14 6 -6 3 7 2 16 -1 19 -3 4 -6 -2 -5 -13z"/>
<path d="M4488 1343 c7 -3 16 -2 19 1 4 3 -2 6 -13 5 -11 0 -14 -3 -6 -6z"/>
<path d="M4921 1324 c0 -11 3 -14 6 -6 3 7 2 16 -1 19 -3 4 -6 -2 -5 -13z"/>
<path d="M4256 1305 c-9 -26 -7 -32 5 -12 6 10 9 21 6 23 -2 3 -7 -2 -11 -11z"/>
<path d="M4766 1285 c-3 -9 -6 -22 -5 -28 0 -7 5 -1 10 12 5 13 8 26 5 28 -2
2 -6 -3 -10 -12z"/>
<path d="M4861 1284 c0 -11 3 -14 6 -6 3 7 2 16 -1 19 -3 4 -6 -2 -5 -13z"/>
<path d="M4880 1290 c0 -3 7 -25 15 -50 l15 -45 -6 40 c-3 22 -10 44 -15 50
-5 5 -9 7 -9 5z"/>
<path d="M4916 1260 c8 -45 12 -50 32 -49 14 1 14 2 -2 6 -15 4 -17 11 -12 41
3 22 2 31 -3 23 -7 -11 -10 -11 -15 0 -3 8 -3 -2 0 -21z"/>
<path d="M4316 1263 c-6 -14 -5 -15 5 -6 7 7 10 15 7 18 -3 3 -9 -2 -12 -12z"/>
<path d="M4650 1260 c0 -5 7 -10 16 -10 8 0 12 5 9 10 -3 6 -10 10 -16 10 -5
0 -9 -4 -9 -10z"/>
<path d="M4190 1251 c0 -5 7 -11 15 -15 8 -3 15 -1 15 3 0 5 -7 11 -15 15 -8
3 -15 1 -15 -3z"/>
<path d="M4846 1243 c3 -10 -2 -49 -11 -88 -23 -101 -23 -110 -9 -123 10 -9
12 -4 9 26 -3 20 5 0 16 -46 l21 -82 39 22 c36 20 38 23 20 32 -11 6 -20 14
-20 19 0 4 -2 13 -5 20 -3 6 -4 -1 -2 -16 3 -21 0 -27 -11 -23 -8 3 -11 1 -8
-4 3 -6 1 -10 -4 -10 -6 0 -11 12 -11 28 0 22 2 24 11 12 8 -12 9 -11 5 5 -18
65 -36 153 -35 170 l0 20 9 -20 c4 -11 13 -46 20 -78 6 -32 14 -56 17 -54 2 3
-1 24 -7 48 -7 23 -9 55 -6 71 3 15 3 42 -1 60 -5 27 -7 29 -14 13 -7 -17 -8
-18 -8 -2 -1 9 -5 17 -10 17 -5 0 -7 -8 -5 -17z m34 -45 c0 -19 -2 -20 -10 -8
-13 19 -13 30 0 30 6 0 10 -10 10 -22z m-11 -163 c1 -29 -18 27 -23 70 l-6 50
15 -55 c8 -30 14 -59 14 -65z"/>
<path d="M4941 1244 c0 -11 3 -14 6 -6 3 7 2 16 -1 19 -3 4 -6 -2 -5 -13z"/>
<path d="M5870 1250 c0 -5 5 -10 11 -10 5 0 7 5 4 10 -3 6 -8 10 -11 10 -2 0
-4 -4 -4 -10z"/>
<path d="M4751 1224 c0 -11 3 -14 6 -6 3 7 2 16 -1 19 -3 4 -6 -2 -5 -13z"/>
<path d="M4970 1207 c0 -14 5 -29 10 -32 7 -4 8 3 4 22 -9 38 -14 42 -14 10z"/>
<path d="M5865 1200 c-3 -5 -1 -10 4 -10 6 0 11 5 11 10 0 6 -2 10 -4 10 -3 0
-8 -4 -11 -10z"/>
<path d="M4925 1190 c3 -5 8 -10 11 -10 2 0 4 5 4 10 0 6 -5 10 -11 10 -5 0
-7 -4 -4 -10z"/>
<path d="M4911 1164 c0 -11 3 -14 6 -6 3 7 2 16 -1 19 -3 4 -6 -2 -5 -13z"/>
<path d="M5051 1164 c0 -11 3 -14 6 -6 3 7 2 16 -1 19 -3 4 -6 -2 -5 -13z"/>
<path d="M5856 1164 c-5 -14 -4 -15 9 -4 17 14 19 20 6 20 -5 0 -12 -7 -15
-16z"/>
<path d="M4396 1153 c-6 -14 -5 -15 5 -6 7 7 10 15 7 18 -3 3 -9 -2 -12 -12z"/>
<path d="M4891 1155 c0 -11 6 -38 14 -60 18 -52 19 -24 1 35 -8 25 -15 36 -15
25z"/>
<path d="M4942 1145 c0 -16 2 -22 5 -12 2 9 2 23 0 30 -3 6 -5 -1 -5 -18z"/>
<path d="M5031 1154 c0 -11 3 -14 6 -6 3 7 2 16 -1 19 -3 4 -6 -2 -5 -13z"/>
<path d="M4665 1149 c-4 -6 -5 -12 -2 -15 2 -3 7 2 10 11 7 17 1 20 -8 4z"/>
<path d="M5010 1141 c0 -11 4 -22 9 -25 4 -3 6 6 3 19 -5 30 -12 33 -12 6z"/>
<path d="M4960 1141 c0 -5 5 -13 10 -16 6 -3 10 -2 10 4 0 5 -4 13 -10 16 -5
3 -10 2 -10 -4z"/>
<path d="M4337 1121 c-4 -17 -3 -21 5 -13 5 5 8 16 6 23 -3 8 -7 3 -11 -10z"/>
<path d="M4921 1124 c0 -11 3 -14 6 -6 3 7 2 16 -1 19 -3 4 -6 -2 -5 -13z"/>
<path d="M5833 1102 c-9 -35 -8 -39 15 -50 23 -11 24 -10 8 7 -17 19 -22 36
-7 27 4 -3 7 6 5 20 -2 19 1 24 12 20 9 -3 12 -1 9 4 -13 21 -33 8 -42 -28z"/>
<path d="M4675 1109 c-5 -13 -10 -17 -18 -11 -15 12 -48 12 -41 0 3 -5 9 -6
14 -3 5 3 23 -4 40 -16 25 -19 32 -21 43 -9 10 10 9 12 -3 6 -9 -5 -8 -2 3 7
9 8 17 20 17 28 -1 10 -4 9 -11 -3 -11 -20 -40 -13 -32 8 3 8 3 14 0 14 -3 0
-9 -9 -12 -21z"/>
<path d="M5111 1104 c0 -11 3 -14 6 -6 3 7 2 16 -1 19 -3 4 -6 -2 -5 -13z"/>
<path d="M4583 1097 c0 -8 6 -14 14 -14 9 0 10 4 2 14 -6 7 -12 13 -14 13 -1
0 -2 -6 -2 -13z"/>
<path d="M5205 1100 c6 -10 4 -12 -9 -7 -15 6 -17 3 -11 -26 4 -17 12 -36 18
-42 7 -7 7 -6 2 4 -6 11 -4 13 8 8 12 -4 17 -1 17 9 0 10 -6 14 -14 11 -8 -3
-17 1 -20 10 -4 11 -2 14 9 9 18 -6 21 19 3 30 -7 5 -8 3 -3 -6z"/>
<path d="M4351 1093 c-1 -6 -4 -20 -7 -30 -5 -17 -5 -17 6 0 6 10 9 23 6 30
-3 9 -5 9 -5 0z"/>
<path d="M4421 1084 c0 -11 3 -14 6 -6 3 7 2 16 -1 19 -3 4 -6 -2 -5 -13z"/>
<path d="M4737 1093 c-4 -3 -7 -14 -7 -24 0 -12 -7 -16 -25 -14 -27 2 -34 -9
-11 -18 8 -3 17 -1 20 6 2 7 5 2 5 -11 1 -19 -2 -21 -18 -12 -20 10 -41 -4
-27 -17 3 -4 6 -1 6 6 0 9 5 9 20 1 17 -9 21 -8 26 7 3 10 11 31 16 46 11 27
8 43 -5 30z"/>
<path d="M4931 1084 c0 -11 3 -14 6 -6 3 7 2 16 -1 19 -3 4 -6 -2 -5 -13z"/>
<path d="M5561 1074 c0 -11 3 -14 6 -6 3 7 2 16 -1 19 -3 4 -6 -2 -5 -13z"/>
<path d="M4616 1063 c-6 -14 -5 -15 5 -6 7 7 10 15 7 18 -3 3 -9 -2 -12 -12z"/>
<path d="M4316 1053 c-6 -14 -5 -15 5 -6 7 7 10 15 7 18 -3 3 -9 -2 -12 -12z"/>
<path d="M4376 1058 c3 -4 9 -8 15 -8 5 0 9 4 9 8 0 5 -7 9 -15 9 -8 0 -12 -4
-9 -9z"/>
<path d="M5924 1054 c-18 -14 -18 -14 6 -3 31 14 36 19 24 19 -6 0 -19 -7 -30
-16z"/>
<path d="M4751 1044 c0 -11 3 -14 6 -6 3 7 2 16 -1 19 -3 4 -6 -2 -5 -13z"/>
<path d="M5260 1051 c0 -6 4 -13 10 -16 6 -3 7 1 4 9 -7 18 -14 21 -14 7z"/>
<path d="M4655 1039 c-4 -6 -5 -12 -2 -15 2 -3 7 2 10 11 7 17 1 20 -8 4z"/>
<path d="M5241 1034 c0 -11 3 -14 6 -6 3 7 2 16 -1 19 -3 4 -6 -2 -5 -13z"/>
<path d="M5291 1034 c0 -11 3 -14 6 -6 3 7 2 16 -1 19 -3 4 -6 -2 -5 -13z"/>
<path d="M5814 1041 c4 -5 1 -11 -5 -13 -6 -2 -1 -12 10 -22 12 -11 21 -14 21
-8 0 6 -5 14 -10 17 -8 5 -7 11 1 21 9 11 8 14 -5 14 -10 0 -15 -4 -12 -9z"/>
<path d="M4628 1022 c-4 -13 -2 -20 5 -19 6 1 12 -4 13 -10 1 -7 3 -16 4 -20
1 -5 2 -11 1 -15 -2 -15 8 -8 19 12 9 16 8 18 -5 14 -9 -4 -15 -3 -14 2 1 5
-2 20 -8 33 -10 24 -10 24 -15 3z"/>
<path d="M4771 1024 c0 -11 3 -14 6 -6 3 7 2 16 -1 19 -3 4 -6 -2 -5 -13z"/>
<path d="M4445 1019 c-4 -6 -5 -12 -2 -15 2 -3 7 2 10 11 7 17 1 20 -8 4z"/>
<path d="M4586 1022 c-3 -5 1 -9 9 -9 8 0 12 4 9 9 -3 4 -7 8 -9 8 -2 0 -6 -4
-9 -8z"/>
<path d="M4806 1008 c10 -36 26 -58 20 -28 -3 14 -6 31 -6 38 0 6 -5 12 -11
12 -6 0 -8 -9 -3 -22z"/>
<path d="M5126 1022 c-2 -4 -1 -14 5 -22 7 -12 9 -10 9 8 0 23 -5 28 -14 14z"/>
<path d="M5935 1010 c-16 -11 -25 -20 -20 -20 10 0 64 39 55 40 -3 0 -18 -9
-35 -20z"/>
<path d="M4735 1000 c-4 -12 -5 -24 -2 -27 3 -2 8 5 12 17 4 12 5 24 2 27 -3
2 -8 -5 -12 -17z"/>
<path d="M5220 1005 c0 -8 4 -15 10 -15 5 0 7 7 4 15 -4 8 -8 15 -10 15 -2 0
-4 -7 -4 -15z"/>
<path d="M5271 1004 c0 -11 3 -14 6 -6 3 7 2 16 -1 19 -3 4 -6 -2 -5 -13z"/>
<path d="M5691 1004 c0 -11 3 -14 6 -6 3 7 2 16 -1 19 -3 4 -6 -2 -5 -13z"/>
<path d="M5969 1003 c-13 -16 -12 -17 4 -4 9 7 17 15 17 17 0 8 -8 3 -21 -13z"/>
<path d="M5870 1000 c-9 -6 -10 -10 -3 -10 6 0 15 5 18 10 8 12 4 12 -15 0z"/>
<path d="M4706 973 c-6 -14 -5 -15 5 -6 7 7 10 15 7 18 -3 3 -9 -2 -12 -12z"/>
<path d="M4841 974 c0 -11 3 -14 6 -6 3 7 2 16 -1 19 -3 4 -6 -2 -5 -13z"/>
<path d="M5251 974 c0 -11 3 -14 6 -6 3 7 2 16 -1 19 -3 4 -6 -2 -5 -13z"/>
<path d="M5877 979 c-9 -5 -22 -7 -29 -3 -7 4 -8 3 -4 -4 4 -7 2 -12 -3 -12
-6 0 -11 5 -11 12 0 6 -3 9 -6 6 -3 -4 2 -19 11 -35 9 -15 14 -20 11 -11 -4
13 4 22 24 33 17 9 30 18 30 20 0 7 -2 6 -23 -6z"/>
<path d="M4516 963 c-6 -14 -5 -15 5 -6 7 7 10 15 7 18 -3 3 -9 -2 -12 -12z"/>
<path d="M4751 964 c0 -11 3 -14 6 -6 3 7 2 16 -1 19 -3 4 -6 -2 -5 -13z"/>
<path d="M5276 967 c3 -10 9 -15 12 -12 3 3 0 11 -7 18 -10 9 -11 8 -5 -6z"/>
<path d="M5890 960 c-19 -11 -31 -19 -27 -20 11 0 67 29 67 35 0 7 -1 7 -40
-15z"/>
<path d="M4375 959 c-4 -6 -5 -12 -2 -15 2 -3 7 2 10 11 7 17 1 20 -8 4z"/>
<path d="M4675 951 c-4 -14 -11 -18 -23 -14 -15 6 -15 5 -3 -11 14 -17 15 -17
28 0 12 17 18 44 9 44 -3 0 -7 -9 -11 -19z"/>
<path d="M5562 950 c0 -14 2 -19 5 -12 2 6 2 18 0 25 -3 6 -5 1 -5 -13z"/>
<path d="M5653 955 c0 -8 4 -12 9 -9 5 3 6 10 3 15 -9 13 -12 11 -12 -6z"/>
<path d="M4560 956 c0 -2 8 -10 18 -17 15 -13 16 -12 3 4 -13 16 -21 21 -21
13z"/>
<path d="M5632 935 c0 -16 2 -22 5 -12 2 9 2 23 0 30 -3 6 -5 -1 -5 -18z"/>
<path d="M4387 931 c-4 -17 -3 -21 5 -13 5 5 8 16 6 23 -3 8 -7 3 -11 -10z"/>
<path d="M5485 934 c24 -18 19 -37 -6 -24 -11 7 -23 9 -27 6 -3 -3 1 -6 8 -6
9 0 7 -5 -6 -16 -18 -15 -18 -15 3 -5 26 13 36 14 29 3 -2 -4 4 -8 14 -8 17 0
20 22 6 45 -4 5 0 11 6 14 7 2 1 4 -15 3 -22 -1 -25 -3 -12 -12z"/>
<path d="M5950 940 c-9 -6 -10 -10 -3 -10 6 0 15 5 18 10 8 12 4 12 -15 0z"/>
<path d="M4297 933 c-4 -3 -7 -11 -7 -17 0 -6 5 -5 12 2 6 6 9 14 7 17 -3 3
-9 2 -12 -2z"/>
<path d="M5435 930 c-3 -6 1 -7 9 -4 18 7 21 14 7 14 -6 0 -13 -4 -16 -10z"/>
<path d="M5592 915 c0 -16 2 -22 5 -12 2 9 2 23 0 30 -3 6 -5 -1 -5 -18z"/>
<path d="M4687 909 c-4 -14 -10 -18 -19 -14 -10 6 -10 5 -1 -5 8 -9 9 -19 2
-32 -6 -12 -6 -18 1 -18 5 0 10 7 10 15 0 8 4 15 10 15 5 0 7 -8 4 -17 -5 -14
-4 -15 4 -4 5 7 8 28 5 45 -6 39 -9 42 -16 15z"/>
<path d="M5312 910 c0 -14 2 -19 5 -12 2 6 2 18 0 25 -3 6 -5 1 -5 -13z"/>
<path d="M4040 900 c0 -11 2 -20 4 -20 2 0 6 9 9 20 3 11 1 20 -4 20 -5 0 -9
-9 -9 -20z"/>
<path d="M5610 906 c0 -8 4 -17 9 -20 5 -4 7 3 4 14 -6 23 -13 26 -13 6z"/>
<path d="M5976 905 c-11 -8 -15 -15 -9 -15 6 0 16 7 23 15 16 19 11 19 -14 0z"/>
<path d="M4517 891 c-4 -17 -3 -21 5 -13 5 5 8 16 6 23 -3 8 -7 3 -11 -10z"/>
<path d="M4627 890 c2 -9 11 -17 19 -17 9 0 11 4 4 12 -5 7 -8 14 -5 17 3 2
-1 5 -9 5 -7 0 -11 -7 -9 -17z"/>
<path d="M4576 885 c3 -8 10 -13 14 -10 5 3 10 0 12 -7 3 -7 7 -4 12 7 4 11 4
16 0 13 -4 -4 -15 -3 -25 3 -15 7 -17 6 -13 -6z"/>
<path d="M4726 885 c-9 -26 -7 -32 5 -12 6 10 9 21 6 23 -2 3 -7 -2 -11 -11z"/>
<path d="M5570 886 c0 -7 9 -16 20 -19 11 -3 20 -4 20 -3 0 1 -9 9 -20 19 -15
13 -20 14 -20 3z"/>
<path d="M5641 870 c0 -19 4 -42 9 -50 8 -12 10 -11 9 5 -1 11 -5 34 -9 50
l-8 30 -1 -35z"/>
<path d="M5980 879 c-22 -18 -22 -19 -3 -10 12 6 25 16 28 21 9 15 3 12 -25
-11z"/>
<path d="M4480 850 c0 -5 1 -11 2 -12 1 -2 -4 -13 -11 -26 -12 -22 -11 -23 7
-13 20 11 36 40 27 49 -3 3 -5 0 -5 -6 0 -7 -4 -12 -10 -12 -5 0 -7 7 -4 15 4
8 3 15 0 15 -3 0 -6 -4 -6 -10z"/>
<path d="M5252 840 c0 -14 2 -19 5 -12 2 6 2 18 0 25 -3 6 -5 1 -5 -13z"/>
<path d="M5620 840 c0 -11 4 -20 9 -20 5 0 7 9 4 20 -3 11 -7 20 -9 20 -2 0
-4 -9 -4 -20z"/>
<path d="M4640 843 c0 -5 4 -13 10 -19 6 -6 6 -15 0 -24 -8 -12 -10 -11 -10 5
0 17 -2 17 -10 5 -9 -13 -10 -13 -10 0 0 9 -3 11 -8 5 -4 -6 -17 -10 -29 -9
-13 1 -25 -7 -32 -22 -9 -20 -8 -22 6 -17 13 5 15 2 10 -11 -4 -10 -7 -20 -7
-22 0 -3 -4 -3 -9 1 -6 3 -15 -5 -21 -17 -11 -22 -10 -22 4 -4 14 18 21 15 17
-7 -1 -4 8 -3 19 3 10 6 24 28 30 50 6 23 15 38 21 34 20 -12 58 -11 63 2 3 9
0 11 -11 7 -11 -4 -14 -3 -9 5 4 7 0 19 -8 28 -9 8 -16 12 -16 7z m-44 -59
c-3 -9 -6 -18 -6 -21 0 -3 -7 0 -15 7 -13 11 -13 15 -3 21 21 13 31 10 24 -7z"/>
<path d="M5385 840 c-3 -6 1 -7 9 -4 18 7 21 14 7 14 -6 0 -13 -4 -16 -10z"/>
<path d="M5602 830 c0 -14 2 -19 5 -12 2 6 2 18 0 25 -3 6 -5 1 -5 -13z"/>
<path d="M5302 820 c0 -14 2 -19 5 -12 2 6 2 18 0 25 -3 6 -5 1 -5 -13z"/>
<path d="M5673 820 c1 -11 5 -20 10 -20 5 0 7 6 4 14 -3 8 -1 17 6 20 7 2 5 5
-5 5 -11 1 -16 -6 -15 -19z"/>
<path d="M4536 815 c-3 -9 -6 -22 -5 -28 0 -7 5 -1 10 12 5 13 8 26 5 28 -2 2
-6 -3 -10 -12z"/>
<path d="M5348 823 c7 -3 16 -2 19 1 4 3 -2 6 -13 5 -11 0 -14 -3 -6 -6z"/>
<path d="M5350 796 c0 -8 -6 -17 -12 -19 -9 -4 -8 -6 2 -6 8 0 22 4 30 9 11 7
11 10 2 10 -7 0 -10 5 -7 10 3 6 1 10 -4 10 -6 0 -11 -6 -11 -14z"/>
<path d="M4506 783 c-6 -14 -5 -15 5 -6 7 7 10 15 7 18 -3 3 -9 -2 -12 -12z"/>
<path d="M4520 749 c0 -5 -4 -8 -9 -4 -5 3 -12 1 -15 -4 -4 -5 2 -8 11 -7 15
3 33 26 19 26 -3 0 -6 -5 -6 -11z"/>
<path d="M5350 745 c0 -8 4 -15 10 -15 5 0 7 7 4 15 -4 8 -8 15 -10 15 -2 0
-4 -7 -4 -15z"/>
<path d="M4705 729 c-4 -6 -5 -12 -2 -15 2 -3 7 2 10 11 7 17 1 20 -8 4z"/>
<path d="M4691 684 c0 -11 3 -14 6 -6 3 7 2 16 -1 19 -3 4 -6 -2 -5 -13z"/>
<path d="M5870 620 c8 -5 20 -10 25 -10 6 0 3 5 -5 10 -8 5 -19 10 -25 10 -5
0 -3 -5 5 -10z"/>
<path d="M5830 610 c-11 -7 -11 -10 -2 -10 8 0 10 -5 6 -12 -4 -7 -3 -9 1 -5
7 6 17 37 12 37 -1 0 -9 -5 -17 -10z"/>
<path d="M6000 520 c-8 -5 -12 -11 -10 -14 3 -2 14 2 24 10 22 15 10 19 -14 4z"/>
<path d="M6377 473 c-3 -5 -8 -22 -11 -39 -4 -17 -18 -41 -31 -52 l-25 -22 19
-47 c10 -27 24 -59 29 -73 16 -38 25 -64 28 -78 10 -49 14 -3 14 146 0 153 -6
194 -23 165z"/>
<path d="M5940 460 c-11 -7 -11 -10 -2 -10 7 0 10 -4 7 -10 -8 -13 5 -13 25 0
12 8 12 10 -5 10 -17 0 -17 2 -5 10 8 5 11 10 5 10 -5 0 -17 -5 -25 -10z"/>
<path d="M6080 425 c-14 -8 -20 -14 -15 -14 6 0 21 6 35 14 14 8 21 14 15 14
-5 0 -21 -6 -35 -14z"/>
<path d="M6045 385 c-16 -8 -23 -14 -14 -15 8 0 24 7 35 15 23 18 18 18 -21 0z"/>
<path d="M5990 360 c-9 -6 -10 -10 -3 -10 6 0 15 5 18 10 8 12 4 12 -15 0z"/>
<path d="M6097 254 c-15 -8 -25 -19 -22 -24 3 -5 -16 -20 -42 -34 -26 -14 -44
-25 -39 -26 19 -1 96 44 93 54 -2 6 10 19 27 28 17 9 27 17 21 17 -5 0 -23 -7
-38 -15z"/>
<path d="M6030 220 c-8 -5 -10 -10 -5 -10 6 0 17 5 25 10 8 5 11 10 5 10 -5 0
-17 -5 -25 -10z"/>
<path d="M0 80 l0 -80 60 0 c56 0 60 2 60 23 0 21 -95 137 -113 137 -4 0 -7
-36 -7 -80z"/>
<path d="M6155 110 c-3 -6 1 -7 9 -4 18 7 21 14 7 14 -6 0 -13 -4 -16 -10z"/>
<path d="M6170 95 c-14 -8 -20 -14 -15 -14 6 0 21 6 35 14 14 8 21 14 15 14
-5 0 -21 -6 -35 -14z"/>
<path d="M6200 86 c0 -2 7 -7 16 -10 8 -3 12 -2 9 4 -6 10 -25 14 -25 6z"/>
<path d="M6075 55 c-39 -17 -21 -18 25 0 19 7 28 14 20 14 -8 0 -28 -6 -45
-14z"/>
<path d="M6153 54 c-8 -22 11 -38 33 -26 16 9 15 10 -5 17 -11 3 -19 11 -16
16 4 5 4 9 0 9 -3 0 -8 -7 -12 -16z"/>
<path d="M5871 34 c0 -11 3 -14 6 -6 3 7 2 16 -1 19 -3 4 -6 -2 -5 -13z"/>
<path d="M6070 28 c-30 -11 -56 -21 -57 -22 -2 -1 29 -3 67 -3 67 -1 97 8 64
21 -8 3 -12 10 -9 16 8 13 0 12 -65 -12z"/>
<path d="M5987 28 c2 -5 -6 -7 -18 -5 -12 1 -24 -4 -26 -13 -4 -12 -3 -12 5
-1 5 7 11 9 13 4 2 -6 21 -3 44 7 l40 17 -32 -1 c-17 -1 -29 -4 -26 -8z"/>
<path d="M3201 14 c0 -11 3 -14 6 -6 3 7 2 16 -1 19 -3 4 -6 -2 -5 -13z"/>
<path d="M6180 10 c-8 -5 -10 -10 -5 -10 6 0 17 5 25 10 8 5 11 10 5 10 -5 0
-17 -5 -25 -10z"/>
</g>
</svg>
